<?xml version="1.0" encoding="UTF-8" standalone="no"?>
<svg
   id="svg14446"
   height="463.4"
   width="463.4"
   version="1.1"
   sodipodi:docname="crops-assets.svg"
   inkscape:version="1.2.1 (9c6d41e410, 2022-07-14)"
   inkscape:export-filename="corn-ill-marked.png"
   inkscape:export-xdpi="39.34"
   inkscape:export-ydpi="39.34"
   xmlns:inkscape="http://www.inkscape.org/namespaces/inkscape"
   xmlns:sodipodi="http://sodipodi.sourceforge.net/DTD/sodipodi-0.dtd"
   xmlns:xlink="http://www.w3.org/1999/xlink"
   xmlns="http://www.w3.org/2000/svg"
   xmlns:svg="http://www.w3.org/2000/svg">
  <sodipodi:namedview
     id="namedview82"
     pagecolor="#ffffff"
     bordercolor="#666666"
     borderopacity="1.0"
     inkscape:showpageshadow="2"
     inkscape:pageopacity="0.0"
     inkscape:pagecheckerboard="0"
     inkscape:deskcolor="#d1d1d1"
     showgrid="false"
     inkscape:zoom="1.8105309"
     inkscape:cx="203.80762"
     inkscape:cy="160.72634"
     inkscape:window-width="1920"
     inkscape:window-height="1017"
     inkscape:window-x="0"
     inkscape:window-y="32"
     inkscape:window-maximized="1"
     inkscape:current-layer="layer5" />
  <defs
     id="defs14448">
    <inkscape:path-effect
       effect="fillet_chamfer"
       id="path-effect2545"
       is_visible="true"
       lpeversion="1"
       nodesatellites_param="F,0,0,1,0,30,0,1 @ F,0,0,1,0,30,0,1 @ F,0,0,1,0,30,0,1 @ F,0,0,1,0,30,0,1"
       unit="px"
       method="auto"
       mode="F"
       radius="30"
       chamfer_steps="1"
       flexible="false"
       use_knot_distance="true"
       apply_no_radius="true"
       apply_with_radius="true"
       only_selected="false"
       hide_knots="false" />
    <inkscape:path-effect
       effect="fillet_chamfer"
       id="path-effect2537"
       is_visible="true"
       lpeversion="1"
       nodesatellites_param="F,0,0,1,0,30,0,1 @ F,0,0,1,0,30,0,1 @ F,0,0,1,0,30,0,1 @ F,0,0,1,0,30,0,1"
       unit="px"
       method="auto"
       mode="F"
       radius="30"
       chamfer_steps="1"
       flexible="false"
       use_knot_distance="true"
       apply_no_radius="true"
       apply_with_radius="true"
       only_selected="false"
       hide_knots="false" />
    <filter
       id="filter7290"
       height="3.3741989"
       width="1.1616024"
       color-interpolation-filters="sRGB"
       y="-1.1870994"
       x="-0.080801214">
      <feGaussianBlur
         id="feGaussianBlur7292"
         stdDeviation="7.7437863" />
    </filter>
    <filter
       id="filter4092"
       color-interpolation-filters="sRGB"
       x="-0.078262336"
       y="-0.078262336"
       width="1.1565247"
       height="1.1565247">
      <feGaussianBlur
         id="feGaussianBlur4094"
         stdDeviation="13.065897" />
    </filter>
    <linearGradient
       id="_称未設定グラデーション_12"
       x1="41.07"
       y1="67.440002"
       x2="81.900002"
       y2="11.4"
       gradientUnits="userSpaceOnUse"
       gradientTransform="translate(111.68536,183.75923)">
      <stop
         offset="0"
         stop-color="#edbf57"
         id="stop2680" />
      <stop
         offset="1"
         stop-color="#ffd094"
         id="stop2682" />
    </linearGradient>
    <clipPath
       id="SVGID_2_">
      <use
         style="overflow:visible"
         xlink:href="#SVGID_1_"
         id="use466" />
    </clipPath>
    <clipPath
       id="SVGID_4_">
      <use
         style="overflow:visible"
         xlink:href="#SVGID_3_"
         id="use480" />
    </clipPath>
    <clipPath
       id="SVGID_6_">
      <use
         style="overflow:visible"
         xlink:href="#SVGID_5_"
         id="use492" />
    </clipPath>
    <clipPath
       id="SVGID_8_">
      <use
         style="overflow:visible"
         xlink:href="#SVGID_7_"
         id="use504" />
    </clipPath>
    <clipPath
       id="SVGID_10_">
      <use
         style="overflow:visible"
         xlink:href="#SVGID_9_"
         id="use522" />
    </clipPath>
    <path
       id="SVGID_1_"
       d="m 109.87,7.77 c -1.55,-1.77 -3.1,-2.83 -5.49,-2.69 -1.61,0.09 -3.52,0.3 -4.57,1.68 -0.85,1.11 -1.65,2.92 -1.5,4.36 C 97.53,10.58 96.74,10.08 95.96,9.66 94.76,9 93.49,9.07 91.91,9.55 c -3.6,1.11 -7.12,4.78 -5.8,8.79 0.21,0.63 0.39,1.11 0.57,1.62 -1.19,-0.91 -1.93,-1.71 -3.46,-2.11 -2.59,-0.68 -5.27,-0.32 -7.84,1.96 -2.93,2.64 -3.14,5.53 -1.82,8.43 -0.09,-0.05 -0.17,-0.11 -0.26,-0.16 -1.17,-0.62 -2.46,-0.97 -3.74,-0.85 -1.64,0.14 -3.29,1.1 -4.96,3.31 -1.95,2.59 -2.16,5.64 -1.29,8.49 -0.92,-0.6 -1.87,-1.1 -2.83,-1.37 -1.4,-0.4 -2.91,-0.03 -4.26,0.4 -3.47,1.08 -5.76,3.88 -5.44,7.6 0.12,1.36 0.55,2.79 1.16,4.16 -0.85,-0.52 -1.71,-0.96 -2.57,-1.21 -1.4,-0.4 -2.9,-0.03 -4.26,0.4 -3.47,1.08 -5.76,3.87 -5.43,7.6 0.09,1.13 0.43,2.3 0.88,3.46 -0.46,-0.22 -0.92,-0.43 -1.38,-0.56 -1.4,-0.4 -2.91,-0.03 -4.26,0.4 -3.49,1.08 -5.77,3.87 -5.45,7.6 0.09,1.12 0.42,2.29 0.87,3.45 -1.05,-0.02 -2.11,0.14 -3.11,0.45 -3.46,1.08 -5.76,3.88 -5.44,7.6 0.27,3.14 2.02,6.73 4.57,8.82 1.74,1.42 4.02,2.49 6.05,3.39 3.36,1.49 7.43,0.09 9.62,-2.66 2.27,-2.83 2.12,-5.66 0.48,-8.29 2.72,0.17 5.5,-1.11 7.18,-3.22 2.28,-2.83 2.11,-5.67 0.47,-8.29 0.04,0.01 0.08,0.03 0.11,0.05 3.36,1.49 7.42,0.08 9.62,-2.66 2.49,-3.09 2.07,-6.19 0.01,-9 0.49,0.24 1,0.5 1.48,0.72 3.36,1.48 7.42,0.08 9.63,-2.66 2.02,-2.52 2.09,-5.04 0.95,-7.42 1.62,0.44 3.3,0.46 4.94,-0.15 1.18,-0.44 2.32,-1.18 3.36,-2.3 2.63,-2.8 2.57,-5.97 1.25,-8.91 0.49,0.18 0.89,0.36 1.49,0.54 5.77,1.74 12.58,-5.39 8.6,-10.76 -0.1,-0.14 -0.17,-0.24 -0.27,-0.38 0.06,0.04 0.09,0.07 0.14,0.1 3.99,2.35 9.22,1.88 11.66,-2.34 1.11,-1.96 1.21,-3.82 0.75,-5.54 2.14,0.79 4.57,0.65 6.55,-0.86 3.31,-2.54 1.71,-6.82 -0.56,-9.42 z" />
    <path
       id="SVGID_3_"
       d="m 115.23,17.99 c -0.09,-0.02 -0.18,-0.05 -0.29,-0.08 -4.42,-1.44 -9.72,-6.57 -10,-11.39 -0.11,-1.89 1.62,-2.99 3.28,-3.26 0.98,-0.15 2.55,-0.23 3.43,0.07 4.56,1.58 11.21,10.48 5.36,14.34 -0.58,0.38 -1.14,0.47 -1.78,0.32 z" />
    <path
       id="SVGID_5_"
       d="m 122.12,20.46 c -0.57,-1.05 -1.44,-2.1 -2.54,-2.6 -3.06,-1.39 -5.12,-0.02 -6.2,2.96 -0.4,1.14 -0.61,2.35 -0.54,3.34 0.06,0.93 0.18,1.46 0.66,2.22 0.21,0.32 0.41,0.57 0.6,0.81 -0.81,0.07 -1.54,0.45 -2.1,1.28 -1.21,1.86 -2.03,3.92 -3.17,5.77 -0.9,1.52 -2.3,2.82 -2.16,4.76 0.03,0.3 0.14,0.58 0.32,0.85 -2.94,-0.66 -4.07,2.05 -5.71,4.15 -1.72,2.23 -5.04,5.37 -3.36,8.47 0.03,0.06 0.08,0.1 0.12,0.16 -0.59,-0.28 -1.18,-0.54 -1.73,-0.75 -1.03,-0.4 -1.72,-0.44 -2.45,0.26 -1.78,1.66 -3.29,3.5 -5.09,5.14 -1.04,0.95 -2.3,2.23 -2.38,3.72 -0.05,0.94 0.39,1.81 1.06,2.61 -0.4,-0.11 -0.8,-0.27 -1.18,-0.32 -3.95,-0.55 -8.28,3.79 -8.71,7.52 -0.19,1.66 0.22,3.25 1,4.7 -4.12,-1.47 -9.12,0.34 -11.11,4.31 -4.02,8 5.95,14.82 12.94,13.78 4.18,-0.63 7.47,-5.56 7.16,-9.63 -0.04,-0.71 -0.24,-1.28 -0.49,-1.8 2.33,0.47 4.64,-0.12 6.79,-1.58 2.85,-1.93 6.57,-7.51 3.35,-10.72 -0.03,-0.03 -0.07,-0.07 -0.11,-0.1 1.12,0.1 2.33,-0.02 3.31,-0.29 1.57,-0.44 2.6,-1.16 3.59,-2.3 1.05,-1.23 1.86,-2.68 2.23,-4.22 0.27,-1.06 0.22,-1.99 -0.04,-2.85 -0.4,-1.24 -1.22,-2.4 -2.26,-3.45 0.95,0.43 1.94,0.76 2.96,0.78 3.46,0.06 6.12,-2.5 7.06,-5.53 0.66,-2.06 1.31,-4.35 0.22,-6.39 l -0.18,-0.31 c -0.47,-0.75 -1.1,-1.47 -1.8,-2.16 1.44,0.41 2.95,0.5 4.27,-0.06 2.18,-0.93 3.06,-3.37 3.44,-5.48 0.42,-2.36 0.52,-4.41 -0.37,-6.69 -0.21,-0.58 -0.48,-0.97 -0.83,-1.37 1.65,-0.15 3.08,-1.47 3.49,-3.18 0.39,-1.57 0.76,-4.33 -0.06,-5.81 z" />
    <path
       id="SVGID_7_"
       d="m 116.5,23.52 c 1.38,-1.06 1.57,-2.97 1.65,-4.58 0.14,-2.39 -0.93,-3.93 -2.72,-5.46 -2.61,-2.26 -6.9,-3.85 -9.42,-0.52 -1.5,1.98 -1.62,4.41 -0.82,6.54 -1.73,-0.45 -3.6,-0.35 -5.55,0.79 -4.21,2.45 -4.66,7.69 -2.28,11.66 0.04,0.06 0.07,0.09 0.11,0.15 -0.14,-0.09 -0.25,-0.17 -0.38,-0.27 -5.39,-3.96 -12.5,2.88 -10.73,8.65 0.26,0.85 0.52,1.5 0.77,2.08 -3.03,-1.47 -6.36,-1.59 -9.23,1.15 -1.12,1.06 -1.87,2.19 -2.29,3.37 -0.53,1.43 -0.56,2.91 -0.26,4.35 -2.3,-1.01 -4.74,-0.86 -7.16,1.11 -2.74,2.21 -4.12,6.28 -2.62,9.63 0.22,0.48 0.48,0.98 0.72,1.47 -2.82,-2.05 -5.93,-2.44 -9,0.04 -2.73,2.22 -4.11,6.29 -2.61,9.64 0.02,0.03 0.03,0.07 0.04,0.11 -2.62,-1.62 -5.45,-1.77 -8.27,0.52 -2.1,1.69 -3.37,4.47 -3.19,7.19 -2.63,-1.62 -5.46,-1.76 -8.3,0.53 -2.72,2.21 -4.11,6.27 -2.6,9.64 0.91,2.02 2,4.3 3.43,6.03 2.11,2.55 5.71,4.29 8.84,4.53 3.71,0.31 6.5,-2.01 7.58,-5.48 0.3,-0.99 0.46,-2.05 0.43,-3.1 1.16,0.44 2.33,0.77 3.46,0.86 3.73,0.3 6.5,-2 7.58,-5.47 0.42,-1.37 0.79,-2.88 0.37,-4.27 -0.13,-0.46 -0.35,-0.92 -0.57,-1.38 1.16,0.44 2.34,0.78 3.46,0.87 3.72,0.3 6.51,-2.01 7.58,-5.48 0.4,-1.36 0.77,-2.87 0.37,-4.27 -0.25,-0.86 -0.7,-1.71 -1.22,-2.56 1.38,0.61 2.8,1.04 4.16,1.14 3.73,0.3 6.52,-1.99 7.58,-5.48 0.42,-1.36 0.78,-2.88 0.38,-4.27 -0.22,-0.73 -0.58,-1.46 -0.99,-2.18 2.71,0.68 5.56,0.37 7.98,-1.48 2.19,-1.67 3.15,-3.34 3.28,-4.97 0.13,-1.28 -0.23,-2.56 -0.86,-3.74 -0.17,-0.33 -0.41,-0.67 -0.62,-1 3.09,1.61 6.18,1.55 8.99,-1.6 2.29,-2.57 2.61,-5.25 1.92,-7.84 -0.4,-1.54 -1.21,-2.26 -2.13,-3.46 0.52,0.18 1.01,0.35 1.63,0.56 4.01,1.31 7.67,-2.23 8.76,-5.84 0.49,-1.58 0.55,-2.86 -0.12,-4.07 -0.42,-0.77 -0.93,-1.56 -1.48,-2.33 1.42,0.14 3.22,-0.66 4.35,-1.51 z" />
    <path
       id="SVGID_9_"
       d="M 93.99,78.05 C 93.8,78 93.6,77.94 93.4,77.9 89.57,77.02 78.58,75.49 70.01,75.6 c -15.3,0.19 -30.02,2.91 -41.98,9.63 -1.11,0.63 -2.32,1.3 -3.56,2.02 -4.76,2.76 -10.01,6.23 -12.8,10.71 -1.09,1.73 -1.8,3.6 -1.98,5.65 -0.16,1.79 -0.16,3.61 -0.06,5.45 0.03,0.7 0.13,1.52 -0.13,2.13 -0.3,0.69 -0.93,0.71 -1.4,1.18 -1.14,1.17 -2.5,1.74 -2.71,3.56 l -0.01,0.17 c -0.05,2.45 2.48,5.31 4.28,7.07 1.21,1.2 2.8,2.77 4.34,3.5 1.06,0.49 2.01,0.63 3.12,0.79 l 0.53,0.04 c 2.09,0 2.44,-2.01 4,-2.94 0.31,-0.18 0.6,-0.24 0.91,-0.24 0.65,0 1.33,0.29 2.07,0.4 4.62,0.65 8.7,1.77 13.01,1.77 1.6,0 3.24,-0.16 4.95,-0.55 7.01,-1.63 12.95,-5.56 18.77,-9.61 5.64,-3.91 10.82,-8.57 16.25,-13.2 5.16,-4.41 10.89,-10.16 18.51,-10.16 1.54,0 3.15,0.23 4.84,0.76 3.21,0.98 5.34,2.88 7.9,4.8 1.05,0.79 2.34,2.43 3.8,2.43 0.55,0 1.12,-0.23 1.71,-0.81 3.19,-3.12 0.63,-9.12 -1.77,-11.94 -4.56,-5.37 -11.69,-8.47 -18.61,-10.16 z" />
  </defs>
  <g
     inkscape:groupmode="layer"
     id="layer2"
     inkscape:label="background-healthy"
     style="display:none"
     sodipodi:insensitive="true">
    <path
       style="display:inline;fill:#4ecd06;stroke:#2d7205;stroke-width:4;stroke-dasharray:none;stroke-opacity:1;stop-color:#000000"
       id="rect529"
       width="240"
       height="240"
       x="121.32176"
       y="87.329025"
       inkscape:path-effect="#path-effect2537"
       d="m 151.32176,87.329025 h 180 a 30,30 45 0 1 30,30.000005 v 180 a 30,30 135 0 1 -30,30 h -180 a 30,30 45 0 1 -30,-30 v -180 a 30,30 135 0 1 30,-30.000005 z"
       sodipodi:type="rect"
       sodipodi:insensitive="true" />
  </g>
  <g
     inkscape:groupmode="layer"
     id="g2541"
     inkscape:label="background-ill"
     style="display:inline"
     sodipodi:insensitive="true">
    <path
       style="display:inline;fill:#66795c;fill-opacity:1;stroke:#384333;stroke-width:4;stroke-dasharray:none;stroke-opacity:1;stop-color:#000000"
       id="rect2539"
       width="240"
       height="240"
       x="121.32176"
       y="87.329025"
       inkscape:path-effect="#path-effect2545"
       d="m 151.32176,87.329025 h 180 a 30,30 45 0 1 30,30.000005 v 180 a 30,30 135 0 1 -30,30 h -180 a 30,30 45 0 1 -30,-30 v -180 a 30,30 135 0 1 30,-30.000005 z"
       sodipodi:type="rect"
       sodipodi:insensitive="true" />
  </g>
  <g
     inkscape:groupmode="layer"
     id="layer1"
     inkscape:label="wheat"
     sodipodi:insensitive="true"
     style="display:none">
    <g
       id="g1339"
       sodipodi:insensitive="true">
      <path
         id="path6065"
         fill="#e7d06b"
         d="M 40.3,24 40,24.25 h -0.05 l -0.25,0.2 -0.75,0.45 c -0.066,0.067 -0.15,0.117 -0.25,0.15 -0.023,0.003 -0.048,0.003 -0.075,0 -1.593,0.223 -2.718,-0.044 -3.375,-0.8 -0.033,-0.033 -0.05,-0.067 -0.05,-0.1 -0.066,-0.066 -0.117,-0.133 -0.15,-0.2 -0.1,-0.167 -0.166,-0.333 -0.2,-0.5 -0.033,-0.1 -0.066,-0.2 -0.1,-0.3 V 23.1 C 34.783,23.067 34.8,23.033 34.8,23 L 35,22.9 c 0.066,-0.033 0.15,-0.066 0.25,-0.1 -0.1,0.233 -0.033,0.5 0.2,0.8 0.2,0.233 0.533,0.417 1,0.55 0.467,0.133 0.983,0.184 1.55,0.15 0.6,-0.033 1.15,-0.15 1.65,-0.35 0.566,-0.2 1.033,-0.5 1.399,-0.9 h 0.05 l -0.25,0.35 c -0.1,0.1 -0.216,0.217 -0.35,0.35 C 40.434,23.817 40.366,23.9 40.3,24 Z M 29.5,0 29.6,0.35 c 0,0.1 0.017,0.2 0.051,0.3 v 0.1 L 29.7,1.1 v 0.3 c 0.033,0.333 0.05,0.667 0.05,1 0,0.1 -0.017,0.2 -0.05,0.3 L 29.55,4.2 C 29.533,4.266 29.517,4.333 29.5,4.4 28.467,6.1 27.4,6.834 26.3,6.6 26.267,6.567 26.217,6.55 26.151,6.55 26.083,6.517 26,6.483 25.9,6.45 25.7,6.383 25.517,6.266 25.35,6.1 25.258,6.038 25.166,5.964 25.075,5.875 L 25.05,5.85 V 5.8 C 25.017,5.767 25,5.717 25,5.65 V 5.55 L 25.05,5.3 c 0.034,-0.1 0.067,-0.183 0.1,-0.25 0.1,0.367 0.367,0.6 0.8,0.7 0.333,0.067 0.733,-0.033 1.2,-0.3 0.433,-0.3 0.833,-0.7 1.199,-1.2 0.434,-0.567 0.75,-1.2 0.95,-1.9 0.233,-0.767 0.3,-1.533 0.2,-2.3 V 0 Z m -4.25,7.85 c -0.033,0.066 -0.067,0.133 -0.1,0.2 L 25,8.4 c -0.1,0.033 -0.217,0.05 -0.35,0.05 h -0.5 C 23.883,8.45 23.633,8.383 23.4,8.25 23.367,8.25 23.334,8.233 23.3,8.2 22.367,7.7 21.984,6.516 22.15,4.65 22.175,4.567 22.209,4.483 22.25,4.4 L 23.1,2.95 C 23.133,2.916 23.166,2.867 23.2,2.8 L 23.75,2.05 H 23.8 V 2 l 0.35,-0.4 c 0.1,-0.067 0.184,-0.133 0.25,-0.2 l 0.3,-0.3 h 0.025 L 24.7,1.15 c -0.5,0.567 -0.883,1.217 -1.15,1.95 -0.267,0.667 -0.4,1.35 -0.4,2.05 0,0.667 0.1,1.233 0.3,1.7 0.2,0.5 0.45,0.816 0.75,0.95 0.066,0.034 0.117,0.05 0.15,0.05 0.1,0.033 0.2,0.05 0.3,0.05 0.2,0.033 0.367,0 0.5,-0.1 0.033,-0.033 0.067,-0.066 0.1,-0.1 z m -1.9,1.55 -0.2,0.25 C 23.084,9.55 23.033,9.45 23,9.35 23.133,9.383 23.25,9.4 23.35,9.4 Z m 3.9,0.85 c -1.833,0.733 -3.117,0.683 -3.85,-0.15 v -0.05 c 0.033,-0.066 0.067,-0.117 0.1,-0.15 0.133,-0.167 0.267,-0.333 0.4,-0.5 0.2,0.133 0.483,0.217 0.85,0.25 0.533,0.067 1.1,0 1.7,-0.2 0.7,-0.2 1.333,-0.5 1.899,-0.9 0.634,-0.466 1.15,-1.033 1.551,-1.7 L 29.95,6.8 29.8,7.1 C 29.734,7.233 29.651,7.383 29.55,7.55 L 29.3,7.95 V 8 l -0.05,0.05 -0.5,0.7 c -0.033,0.033 -0.066,0.067 -0.1,0.1 l -0.4,0.5 -0.9,0.8 c -0.034,0.033 -0.067,0.067 -0.1,0.1 z m -1.9,3.65 c -0.021,0.005 -0.037,0.014 -0.05,0.025 -0.033,0.009 -0.067,0.017 -0.1,0.025 -1.818,0.44 -3.035,0.207 -3.65,-0.7 -0.1,-0.133 -0.183,-0.3 -0.25,-0.5 l 0.45,-0.6 c 0.033,0.1 0.083,0.184 0.15,0.25 0.2,0.3 0.55,0.5 1.05,0.6 0.533,0.1 1.117,0.1 1.75,0 0.667,-0.133 1.316,-0.383 1.95,-0.75 0.699,-0.367 1.283,-0.867 1.75,-1.5 h 0.05 l -0.351,0.5 c -0.143,0.19 -0.292,0.391 -0.449,0.6 -0.067,0.081 -0.134,0.164 -0.2,0.25 l -0.4,0.35 c -0.033,0.066 -0.066,0.117 -0.1,0.15 l -1.45,1.2 c -0.053,0.035 -0.103,0.069 -0.15,0.1 z m -2.35,5 -0.4,0.35 c -0.133,0.133 -0.267,0.25 -0.4,0.35 l -1.1,0.75 c -0.032,0.021 -0.065,0.038 -0.1,0.05 l -0.05,0.05 H 20.9 c -1.904,0.392 -3.138,0.109 -3.7,-0.85 -0.167,-0.3 -0.267,-0.633 -0.3,-1 l 0.55,-0.7 c -0.1,0.267 -0.05,0.55 0.15,0.85 0.167,0.3 0.5,0.517 1,0.65 0.5,0.133 1.083,0.167 1.75,0.1 0.667,-0.067 1.333,-0.267 2,-0.6 0.7,-0.333 1.3,-0.8 1.8,-1.4 H 24.2 L 23.85,18 c -0.167,0.167 -0.333,0.35 -0.5,0.55 z m 0.5,-1.75 c -0.1,0.067 -0.183,0.117 -0.25,0.15 -1.933,0.4 -3.183,0.117 -3.75,-0.85 -0.167,-0.233 -0.267,-0.517 -0.3,-0.85 l 0.5,-0.7 c -0.034,0.233 0.017,0.467 0.15,0.7 0.167,0.3 0.517,0.533 1.05,0.7 0.5,0.133 1.067,0.167 1.7,0.1 0.7,-0.1 1.367,-0.3 2,-0.6 0.733,-0.367 1.35,-0.833 1.85,-1.4 l 0.05,-0.05 -0.35,0.5 c -0.167,0.167 -0.333,0.35 -0.5,0.55 -0.1,0.1 -0.183,0.2 -0.25,0.3 L 25,16.05 c -0.067,0.034 -0.133,0.083 -0.2,0.15 z m 0.8,8 c 0.434,-0.1 0.867,-0.183 1.3,-0.25 0.133,0.033 0.283,0.067 0.45,0.1 0.367,0.033 0.7,-0.05 1,-0.25 -0.1,0 -0.2,-0.017 -0.3,-0.05 0,-0.034 -0.017,-0.05 -0.05,-0.05 H 26.65 V 24.6 c -0.334,-0.133 -0.601,-0.317 -0.8,-0.55 -0.623,-0.72 -0.506,-1.712 0.35,-2.975 0.018,-0.027 0.034,-0.053 0.05,-0.075 0.1,-0.067 0.217,-0.133 0.35,-0.2 l 0.301,-0.2 0.75,-0.35 c 0.066,-0.033 0.133,-0.067 0.199,-0.1 l 0.4,-0.1 c 0.101,-0.033 0.2,-0.066 0.3,-0.1 0.201,-0.056 0.4,-0.106 0.601,-0.15 l 0.5,-0.05 c -0.634,0.133 -1.2,0.4 -1.7,0.8 -0.467,0.333 -0.834,0.733 -1.101,1.2 -0.267,0.467 -0.416,0.917 -0.449,1.35 -0.034,0.4 0.05,0.717 0.25,0.95 0.267,0.267 0.55,0.383 0.85,0.35 -0.033,0.033 -0.066,0.067 -0.1,0.1 L 27.3,24.6 c 0.233,-0.033 0.467,-0.067 0.7,-0.1 0.1,-0.033 0.217,-0.05 0.35,-0.05 0.134,-0.034 0.267,-0.05 0.4,-0.05 0.134,0.067 0.3,0.117 0.5,0.15 -0.167,0.034 -0.384,0.067 -0.65,0.1 -0.3,0.067 -0.633,0.133 -1,0.2 -0.333,0.067 -0.7,0.15 -1.1,0.25 -0.134,0.033 -0.267,0.066 -0.4,0.1 -0.1,0.033 -0.2,0.05 -0.3,0.05 -0.367,0.1 -0.716,0.2 -1.05,0.3 -1.3,0.333 -2.567,0.717 -3.8,1.15 -1.867,0.666 -3.833,1.5 -5.9,2.5 -0.1,0.033 -0.2,0.083 -0.3,0.149 0.067,-0.066 0.117,-0.116 0.15,-0.149 h -0.4 l -0.2,-0.05 c -0.033,0 -0.05,-0.017 -0.05,-0.051 L 14.05,29.049 14,29 c -0.033,0 -0.067,-0.017 -0.1,-0.05 L 13.85,28.9 13,29.3 12.85,29.35 c -0.025,0.018 -0.051,0.034 -0.075,0.051 H 12.75 c -1.433,0.066 -2.383,-0.217 -2.85,-0.851 0.167,-0.233 0.333,-0.483 0.5,-0.75 v 0.05 c 0.1,0.134 0.283,0.267 0.55,0.4 0.4,0.167 0.867,0.267 1.4,0.3 h 0.45 c 0.233,0 0.467,-0.033 0.7,-0.1 0.2,-0.033 0.417,-0.084 0.65,-0.15 h 0.1 c 0.4,-0.133 0.783,-0.333 1.15,-0.6 0.067,-0.033 0.133,-0.066 0.2,-0.101 0.1,-0.066 0.183,-0.133 0.25,-0.199 l 0.05,-0.051 -0.2,0.25 c -0.034,0.034 -0.067,0.051 -0.1,0.051 -0.061,0.061 -0.119,0.118 -0.175,0.175 L 15.4,27.85 c -0.1,0.101 -0.217,0.2 -0.35,0.301 -0.1,0.066 -0.2,0.133 -0.3,0.199 L 14.4,28.6 c 0.033,0.034 0.067,0.051 0.1,0.051 0.1,0.1 0.217,0.149 0.35,0.149 0.133,0.033 0.25,0.017 0.35,-0.05 0,-0.033 0.017,-0.083 0.05,-0.15 0.3,-0.133 0.6,-0.267 0.9,-0.399 0.267,0.1 0.55,0.116 0.85,0.05 0.333,-0.1 0.617,-0.267 0.85,-0.5 -0.1,0 -0.233,-0.017 -0.4,-0.05 -0.067,0 -0.133,-0.017 -0.2,-0.05 C 17.117,27.617 17,27.584 16.9,27.55 c -0.066,-0.033 -0.133,-0.083 -0.2,-0.149 -0.3,-0.2 -0.483,-0.5 -0.55,-0.9 l -0.5,0.2 c -0.069,0.033 -0.119,0.05 -0.15,0.05 h -0.15 c -0.4,0.033 -0.767,0.017 -1.1,-0.05 -0.267,-0.034 -0.5,-0.083 -0.7,-0.15 h -0.1 c -0.633,-0.233 -1.05,-0.617 -1.25,-1.15 0,-0.028 -0.008,-0.07 -0.025,-0.125 0.155,-0.256 0.313,-0.498 0.475,-0.725 0,0.034 0.017,0.067 0.05,0.1 0.1,0.333 0.367,0.6 0.8,0.8 0.167,0.066 0.35,0.133 0.55,0.2 0.167,0.033 0.333,0.067 0.5,0.1 0.167,0.033 0.35,0.05 0.55,0.05 h 1.05 c 0.267,-0.066 0.55,-0.133 0.85,-0.2 h 0.05 c 0.467,-0.133 0.9,-0.317 1.3,-0.55 0.2,-0.133 0.383,-0.267 0.55,-0.4 0.032,-0.032 0.066,-0.049 0.1,-0.05 h -0.1 c 0.033,-0.367 0.167,-0.8 0.4,-1.3 l -0.35,0.2 -0.3,0.2 c -0.055,0.036 -0.113,0.069 -0.175,0.1 -0.02,0.013 -0.045,0.03 -0.075,0.05 h -0.05 c -0.3,0.033 -0.6,0.066 -0.9,0.1 -0.233,0.033 -0.467,0.033 -0.7,0 -0.233,0 -0.45,-0.034 -0.65,-0.1 -0.667,-0.133 -1.133,-0.45 -1.4,-0.95 -0.133,-0.267 -0.217,-0.55 -0.25,-0.85 -0.084,0.103 -0.168,0.211 -0.25,0.325 0.25,-0.363 0.5,-0.722 0.75,-1.075 -0.034,0.233 0.017,0.483 0.15,0.75 0.167,0.3 0.5,0.534 1,0.7 0.5,0.133 1.083,0.183 1.75,0.15 v -0.05 h 0.4 c 0.167,-0.033 0.333,-0.067 0.5,-0.1 0.367,-0.1 0.733,-0.233 1.1,-0.4 0.733,-0.333 1.35,-0.783 1.85,-1.35 l 0.05,-0.05 c 0,0.033 -0.017,0.066 -0.05,0.1 l -0.35,0.45 c -0.033,0 -0.05,0.017 -0.05,0.05 l 0.25,-0.15 c 0.068,-0.034 0.135,-0.067 0.2,-0.1 0.193,-0.083 0.376,-0.15 0.55,-0.2 l 0.5,-0.15 h 0.05 c -0.633,0.233 -1.184,0.583 -1.65,1.05 -0.434,0.433 -0.767,0.917 -1,1.45 -0.233,0.5 -0.367,0.966 -0.4,1.4 0,0.433 0.1,0.767 0.3,1 0.167,0.167 0.35,0.267 0.55,0.3 0.1,0 0.2,-0.017 0.3,-0.05 l -0.05,0.05 c 0.467,-0.167 0.934,-0.316 1.4,-0.45 0.167,0.066 0.35,0.1 0.55,0.1 0.367,0 0.7,-0.1 1,-0.3 -0.133,0 -0.267,-0.033 -0.4,-0.1 -0.034,0 -0.05,-0.017 -0.05,-0.05 -0.3,-0.133 -0.55,-0.3 -0.75,-0.5 -0.591,-0.723 -0.474,-1.756 0.35,-3.1 -0.135,0.12 -0.268,0.237 -0.4,0.35 0.133,-0.133 0.283,-0.267 0.45,-0.4 0.1,-0.067 0.2,-0.133 0.3,-0.2 l 0.25,-0.2 0.65,-0.35 c 0.133,-0.067 0.267,-0.133 0.4,-0.2 l 0.4,-0.15 h 0.025 c 0.086,-0.035 0.161,-0.068 0.225,-0.1 0.233,-0.067 0.434,-0.117 0.6,-0.15 l 0.45,-0.1 c -0.61,0.176 -1.16,0.476 -1.649,0.9 -0.434,0.367 -0.784,0.8 -1.05,1.3 -0.267,0.466 -0.417,0.917 -0.45,1.35 -0.034,0.434 0.05,0.767 0.25,1 0.266,0.266 0.549,0.382 0.849,0.349 z m 7.6,-5.2 h 0.25 c 0.199,-0.034 0.399,-0.067 0.6,-0.1 h 0.5 c -0.647,0.075 -1.247,0.275 -1.8,0.6 -0.467,0.267 -0.851,0.617 -1.15,1.05 -0.3,0.4 -0.483,0.817 -0.55,1.25 -0.066,0.4 0,0.717 0.2,0.95 0.133,0.2 0.3,0.333 0.5,0.4 0.1,0.033 0.2,0.05 0.3,0.05 -0.033,0.033 -0.083,0.067 -0.15,0.1 l -0.2,0.15 c -0.034,0 -0.084,0.017 -0.15,0.05 C 30.184,24.416 30.1,24.383 30,24.35 29.967,24.317 29.917,24.283 29.85,24.25 H 29.8 V 24.2 l -0.649,-0.5 c 0,-0.034 -0.017,-0.067 -0.051,-0.1 -0.033,-0.033 -0.066,-0.083 -0.1,-0.15 l 0.75,-2.725 V 20.7 c 0.1,-0.067 0.217,-0.117 0.35,-0.15 l 0.351,-0.2 0.649,-0.2 c 0.134,-0.033 0.267,-0.066 0.4,-0.1 z m 2,4.3 c -0.032,0.032 -0.066,0.049 -0.101,0.05 -0.033,0.034 -0.066,0.05 -0.1,0.05 l -0.2,0.1 h -0.15 c -0.033,0 -0.066,-0.017 -0.1,-0.05 -0.1,-0.033 -0.2,-0.1 -0.3,-0.2 -0.066,-0.034 -0.134,-0.083 -0.2,-0.15 -0.2,-0.167 -0.35,-0.35 -0.45,-0.55 -0.033,-0.033 -0.05,-0.067 -0.05,-0.1 -0.4,-0.8 -0.05,-1.65 1.05,-2.55 0.113,-0.04 0.23,-0.074 0.351,-0.1 l 0.35,-0.1 0.75,-0.1 c 0.134,-0.033 0.283,-0.05 0.45,-0.05 l 0.45,-0.05 h 0.199 c 0.228,0.007 0.443,0.024 0.65,0.05 l 0.55,0.05 h 0.05 l -0.05,0.05 c -0.7,-0.067 -1.35,0.017 -1.95,0.25 -0.5,0.2 -0.949,0.483 -1.35,0.85 -0.333,0.333 -0.566,0.683 -0.7,1.05 -0.1,0.367 -0.083,0.683 0.05,0.95 0.034,0.033 0.067,0.066 0.101,0.1 0.033,0.067 0.083,0.133 0.149,0.2 0.168,0.133 0.351,0.217 0.551,0.25 z M 21.35,3.75 21.4,3.65 V 3.7 c -0.014,0.018 -0.031,0.035 -0.05,0.05 z m -0.75,0.9 c -0.032,0.032 -0.049,0.066 -0.05,0.1 V 4.7 c 0,-0.033 0.017,-0.05 0.05,-0.05 z M 18.425,6.575 C 18.007,7.201 17.732,7.909 17.6,8.7 c -0.133,0.7 -0.133,1.4 0,2.1 0.1,0.633 0.283,1.167 0.55,1.6 0.267,0.467 0.567,0.733 0.9,0.8 0.434,0.1 0.784,0.017 1.05,-0.25 0,0.1 -0.017,0.2 -0.05,0.3 0.167,-0.2 0.333,-0.4 0.5,-0.6 0.1,-0.1 0.184,-0.2 0.25,-0.3 0.1,-0.133 0.2,-0.25 0.3,-0.35 0.2,-0.033 0.383,-0.117 0.55,-0.25 h 0.05 c -0.133,0.167 -0.3,0.367 -0.5,0.6 -0.2,0.267 -0.45,0.6 -0.75,1 -0.3,0.4 -0.65,0.867 -1.05,1.4 -0.066,0.1 -0.133,0.217 -0.2,0.35 -0.233,0.3 -0.483,0.633 -0.75,1 -0.434,0.533 -0.883,1.133 -1.35,1.8 -0.067,0.1 -0.133,0.2 -0.2,0.3 -0.233,0.333 -0.483,0.683 -0.75,1.05 -0.167,0.2 -0.316,0.4 -0.45,0.6 -1.8,2.467 -3.35,4.6 -4.65,6.4 L 11.1,26.1 v -0.05 c -0.1,0.1 -0.233,0.184 -0.4,0.25 -0.133,0.034 -0.25,0.067 -0.35,0.1 H 10.2 c -0.034,0.033 -0.067,0.05 -0.1,0.05 H 9.8 C 8.867,26.35 8.2,25.5 7.8,23.9 v -0.15 l 0.25,-1.5 c 0.034,-0.067 0.067,-0.133 0.1,-0.2 l 0.2,-0.6 c 0,-0.034 0.017,-0.067 0.05,-0.1 0,-0.067 0.017,-0.117 0.05,-0.15 V 21.1 H 8.5 l 0.1,-0.25 c 0.033,-0.1 0.066,-0.2 0.1,-0.3 l 0.15,-0.3 v 0.05 c -0.233,0.6 -0.367,1.25 -0.4,1.95 0,0.6 0.1,1.183 0.3,1.75 0.167,0.533 0.4,0.967 0.7,1.3 0.267,0.333 0.55,0.517 0.85,0.55 0.2,0 0.367,-0.033 0.5,-0.1 0.133,-0.067 0.233,-0.167 0.3,-0.3 V 25.3 c 0.233,-0.333 0.45,-0.633 0.65,-0.9 l 0.05,-0.05 c 0.333,-0.033 0.633,-0.184 0.9,-0.45 0.267,-0.3 0.45,-0.65 0.55,-1.05 -0.133,0.1 -0.283,0.183 -0.45,0.25 -0.066,0.033 -0.15,0.066 -0.25,0.1 -0.133,0.033 -0.283,0.066 -0.45,0.1 H 11.8 C 10.771,23.2 10.021,22.276 9.55,20.525 V 20.5 C 9.562,20.405 9.579,20.305 9.6,20.2 L 9.85,18.65 C 9.883,18.617 9.9,18.584 9.9,18.55 l 0.25,-0.8 V 17.7 c 0.022,-0.051 0.047,-0.101 0.075,-0.15 0.031,-0.107 0.064,-0.207 0.1,-0.3 L 10.4,17.1 v -0.05 c 0.033,-0.066 0.083,-0.15 0.15,-0.25 l 0.15,-0.3 v 0.05 c -0.3,0.667 -0.434,1.383 -0.4,2.15 0,0.667 0.1,1.316 0.3,1.95 0.2,0.567 0.467,1.033 0.8,1.4 0.333,0.367 0.65,0.55 0.95,0.55 h 0.3 c 0.233,-0.033 0.417,-0.15 0.55,-0.35 0.033,0 0.05,-0.017 0.05,-0.05 0.233,-0.333 0.467,-0.667 0.7,-1 0.133,-0.034 0.283,-0.1 0.45,-0.2 0.333,-0.267 0.567,-0.6 0.7,-1 -0.1,0.067 -0.25,0.117 -0.45,0.15 H 14.6 c -0.033,0.033 -0.067,0.05 -0.1,0.05 -0.367,0.066 -0.7,0.066 -1,0 -1.067,-0.267 -1.7,-1.367 -1.9,-3.3 V 16.75 L 12.2,15 c 0,-0.033 0.017,-0.067 0.05,-0.1 L 12.65,14.05 12.7,14 v -0.05 l 0.2,-0.3 c 0.133,-0.2 0.25,-0.383 0.35,-0.55 l 0.15,-0.2 v 0.05 c -0.4,0.633 -0.65,1.35 -0.75,2.15 -0.133,0.7 -0.133,1.4 0,2.1 0.133,0.633 0.35,1.167 0.65,1.6 0.267,0.434 0.567,0.7 0.9,0.8 0.333,0.066 0.617,0.017 0.85,-0.15 0.067,-0.034 0.133,-0.083 0.2,-0.15 v 0.05 c 0.367,-0.5 0.7,-0.967 1,-1.4 0.2,-0.034 0.4,-0.117 0.6,-0.25 0.333,-0.267 0.583,-0.6 0.75,-1 -0.133,0.066 -0.3,0.133 -0.5,0.2 h -0.05 c -0.367,0.067 -0.716,0.067 -1.05,0 -1.1,-0.3 -1.717,-1.433 -1.85,-3.4 0.017,-0.05 0.033,-0.1 0.05,-0.15 l 0.35,-1.15 0.25,-0.55 c 0,-0.033 0.017,-0.066 0.05,-0.1 l 0.4,-0.8 0.05,-0.05 v -0.025 c 0.017,-0.017 0.034,-0.042 0.05,-0.075 l 0.25,-0.4 c 0.066,-0.1 0.133,-0.184 0.2,-0.25 l 0.25,-0.4 H 16.1 L 16.05,9.6 c -0.4,0.667 -0.667,1.383 -0.8,2.15 -0.133,0.7 -0.15,1.4 -0.05,2.1 0.133,0.633 0.333,1.183 0.6,1.65 0.267,0.433 0.567,0.7 0.9,0.8 0.433,0.1 0.783,0 1.05,-0.3 v 0.05 c 0.3,-0.4 0.617,-0.8 0.95,-1.2 0.167,-0.033 0.333,-0.117 0.5,-0.25 0.333,-0.233 0.583,-0.55 0.75,-0.95 -0.034,0 -0.05,0.017 -0.05,0.05 h -0.05 l -0.2,0.1 h -0.2 c -0.4,0.1 -0.767,0.1 -1.1,0 -1.067,-0.267 -1.684,-1.383 -1.85,-3.35 0.014,-0.083 0.031,-0.167 0.05,-0.25 L 17.1,8.65 c 0.066,-0.1 0.117,-0.2 0.15,-0.3 L 17.6,7.7 c 0.02,-0.04 0.036,-0.073 0.05,-0.1 l 0.05,-0.05 0.25,-0.4 c 0.066,-0.1 0.133,-0.183 0.2,-0.25 l 0.3,-0.4 V 6.55 Z M 6.2,34.1 c 0.2,-0.133 0.433,-0.3 0.7,-0.5 1.767,-1.199 3.267,-2.149 4.5,-2.85 0.633,-0.4 1.267,-0.767 1.9,-1.1 h 0.1 c 0.167,0.1 0.35,0.133 0.55,0.1 -1.267,0.634 -2.333,1.233 -3.2,1.8 -0.767,0.467 -1.633,1.05 -2.6,1.75 -0.5,0.4 -1.2,0.934 -2.1,1.601 -0.267,0.199 -0.5,0.383 -0.7,0.55 C 5.617,34.983 5.9,34.533 6.2,34.1 Z m 8,-7.15 c -0.067,0.233 -0.083,0.467 -0.05,0.7 -0.267,-0.034 -0.517,-0.084 -0.75,-0.15 0,-0.134 0.017,-0.283 0.05,-0.45 z m 3.2,-2.8 c -0.1,0.233 -0.183,0.467 -0.25,0.7 -0.3,-0.033 -0.566,-0.067 -0.8,-0.1 0.033,-0.133 0.066,-0.25 0.1,-0.35 z m 14,0 c 0,-0.1 0.017,-0.2 0.05,-0.3 0.066,0.1 0.149,0.183 0.25,0.25 z m 6.3,2.35 h 0.05 l -0.2,0.05 c -0.166,0.034 -0.35,0.067 -0.55,0.1 l -0.35,0.05 c -0.034,0 -0.051,0.017 -0.051,0.05 L 35.9,26.8 c -0.034,0.002 -0.067,0.002 -0.101,0 -0.202,0.01 -0.402,0.019 -0.6,0.025 L 34.6,26.8 C 34.394,26.788 34.194,26.772 34,26.75 32.434,26.183 31.566,25.5 31.4,24.7 l 0.75,-0.15 c 0.1,0.167 0.233,0.317 0.399,0.45 0.334,0.333 0.767,0.633 1.3,0.9 0.601,0.267 1.217,0.45 1.851,0.55 0.7,0.133 1.366,0.15 2,0.05 z M 1.65,37.7 C 1.75,37.533 1.867,37.316 2,37.05 2.1,36.917 2.2,36.767 2.3,36.6 2.467,36.2 2.633,35.733 2.8,35.2 2.867,34.9 2.95,34.616 3.05,34.349 3.35,33.316 3.55,32.4 3.65,31.599 3.85,30.366 3.933,29.066 3.9,27.7 3.867,26.233 3.717,25.35 3.45,25.05 3.217,24.817 2.9,24.617 2.5,24.45 2.367,24.383 2.233,24.333 2.1,24.3 c 0.167,-0.033 0.316,-0.033 0.45,0 0.5,0.034 0.867,0.133 1.1,0.3 0.167,0.167 0.35,0.467 0.55,0.9 0.233,0.6 0.383,1.333 0.45,2.2 0.133,1.833 -0.1,4.05 -0.7,6.649 L 4,34.3 c -0.333,0.4 -0.65,0.8 -0.95,1.2 -0.233,0.3 -0.466,0.634 -0.7,1 0.033,0.167 0.167,0.233 0.4,0.2 0.167,0 0.767,-0.7 1.8,-2.101 0.833,-1.1 2.034,-2.783 3.6,-5.05 0.533,-0.767 1.033,-1.483 1.5,-2.149 h 0.1 C 9.983,27.366 10.2,27.283 10.4,27.15 9.433,28.516 8.6,29.683 7.9,30.65 7.4,31.383 6.75,32.366 5.95,33.599 5.95,33.633 5.933,33.65 5.9,33.65 5.667,34.05 5.45,34.4 5.25,34.7 4.883,35.266 4.6,35.7 4.4,36 4.334,36.1 4.267,36.184 4.2,36.25 4.1,36.384 4,36.533 3.9,36.7 3.667,37 3.45,37.266 3.25,37.5 3.083,37.667 2.933,37.816 2.8,37.95 2.734,38.016 2.65,38.083 2.55,38.15 2.263,38.34 2.005,38.391 1.775,38.299 1.752,38.254 1.727,38.204 1.7,38.15 1.667,38.05 1.65,37.934 1.65,37.8 Z m 16.7,-12.5 c -0.1,0.066 -0.2,0.133 -0.3,0.2 -0.1,0.067 -0.183,0.133 -0.25,0.2 l -0.5,0.3 c -0.033,0.033 -0.083,0.067 -0.15,0.1 l -0.2,0.1 c 0,0.066 0.017,0.133 0.05,0.2 0.033,0.4 0.15,0.684 0.35,0.851 0.066,0.033 0.133,0.066 0.2,0.1 0.2,0.1 0.383,0.116 0.55,0.05 0.033,-0.033 0.066,-0.05 0.1,-0.05 0.3,-0.134 0.6,-0.267 0.9,-0.4 0.133,0.033 0.283,0.05 0.45,0.05 0.333,-0.033 0.65,-0.15 0.95,-0.35 -0.1,-0.033 -0.233,-0.066 -0.4,-0.1 -0.067,-0.034 -0.133,-0.067 -0.2,-0.1 -0.233,-0.1 -0.433,-0.233 -0.6,-0.4 -0.3,-0.333 -0.433,-0.75 -0.4,-1.25 L 18.6,25 c -0.1,0.067 -0.183,0.133 -0.25,0.2 z m 1.4,2.2 c -0.133,0.133 -0.217,0.333 -0.25,0.6 -0.033,0.3 0.083,0.616 0.35,0.95 0.3,0.333 0.683,0.633 1.15,0.899 0.5,0.267 1.05,0.45 1.65,0.551 0.667,0.133 1.317,0.133 1.95,0 h 0.05 c -0.233,0.066 -0.517,0.133 -0.85,0.199 l -1.05,0.15 c -0.633,0.066 -1.233,0.083 -1.8,0.05 -1.5,-0.633 -2.2,-1.434 -2.1,-2.399 0,-0.233 0.066,-0.467 0.2,-0.7 0.233,-0.1 0.467,-0.2 0.7,-0.3 z m 3.45,-1.2 c -0.2,0.133 -0.317,0.35 -0.35,0.65 -0.033,0.3 0.083,0.617 0.35,0.95 0.3,0.334 0.7,0.634 1.2,0.9 0.5,0.3 1.05,0.5 1.65,0.6 0.7,0.134 1.367,0.15 2,0.05 h 0.05 c -0.3,0.101 -0.683,0.184 -1.149,0.25 L 26.2,29.7 c -0.033,0.002 -0.066,0.002 -0.101,0 -0.057,0.003 -0.115,0.003 -0.175,0 h -0.6 c -0.329,0.002 -0.653,-0.015 -0.975,-0.05 -0.031,-0.014 -0.064,-0.03 -0.1,-0.051 -1.465,-0.651 -2.166,-1.436 -2.1,-2.35 0.033,-0.267 0.133,-0.533 0.3,-0.8 0.133,-0.034 0.267,-0.067 0.4,-0.1 0.101,-0.066 0.218,-0.116 0.351,-0.149 z m 3.05,-0.75 c -0.134,0.133 -0.217,0.3 -0.25,0.5 -0.033,0.3 0.1,0.617 0.4,0.95 0.267,0.333 0.649,0.65 1.149,0.95 0.533,0.301 1.101,0.534 1.7,0.7 0.7,0.134 1.366,0.167 2,0.101 h 0.1 c -0.267,0.066 -0.566,0.116 -0.899,0.149 l -0.3,0.05 -0.75,0.05 h -0.249 l -1.65,-0.15 c -1.533,-0.7 -2.267,-1.517 -2.2,-2.45 0.034,-0.267 0.133,-0.517 0.3,-0.75 h 0.05 z m 7.2,2.4 c -0.934,0.067 -1.834,0.034 -2.7,-0.1 -1.6,-0.7 -2.384,-1.483 -2.35,-2.35 0,-0.1 0.017,-0.2 0.05,-0.3 L 29.1,25 v 0.05 c -0.033,0.267 0.101,0.567 0.4,0.9 0.333,0.333 0.75,0.65 1.25,0.95 0.566,0.3 1.15,0.517 1.75,0.65 0.7,0.167 1.384,0.2 2.05,0.101 l 0.05,0.05 c -0.233,0.033 -0.5,0.066 -0.8,0.1 l -0.3,0.05 H 33.45 Z M 20.95,31.6 H 21 c -0.3,0.067 -0.65,0.117 -1.05,0.15 h -0.1 l -0.7,0.05 -1.55,-0.15 h -0.05 c -1.267,-0.767 -1.8,-1.601 -1.6,-2.5 0.033,-0.034 0.05,-0.067 0.05,-0.1 h -0.05 c 0.233,-0.1 0.466,-0.217 0.7,-0.35 v 0.149 c -0.066,0.267 0,0.567 0.2,0.9 0.2,0.366 0.5,0.7 0.9,1 0.4,0.3 0.867,0.533 1.4,0.7 0.6,0.167 1.2,0.218 1.8,0.151 z m -3.45,0.65 h 0.05 c -0.2,0.066 -0.433,0.134 -0.7,0.2 H 16.6 c -0.377,0.065 -0.736,0.099 -1.075,0.1 C 15.163,32.568 14.821,32.551 14.5,32.5 14.474,32.485 14.448,32.469 14.425,32.45 13.475,31.898 13,31.281 13,30.6 c 0.2,-0.1 0.4,-0.216 0.6,-0.35 0.033,0.2 0.1,0.384 0.2,0.55 0.2,0.334 0.483,0.617 0.85,0.851 0.367,0.267 0.783,0.449 1.25,0.55 0.533,0.132 1.067,0.149 1.6,0.049 z m -0.95,7.6 c 0.167,-0.267 0.317,-0.6 0.45,-1 0.333,-0.8 0.467,-1.5 0.4,-2.1 -0.066,-0.833 -0.417,-1.517 -1.05,-2.05 -0.733,-0.634 -1.8,-0.934 -3.2,-0.9 -0.867,0 -2.033,0.217 -3.5,0.65 -0.896,0.256 -1.98,0.623 -3.25,1.1 2.03,-1.097 3.83,-1.746 5.4,-1.95 1,-0.133 1.917,-0.116 2.75,0.051 0.767,0.166 1.417,0.449 1.95,0.85 0.467,0.366 0.833,0.8 1.1,1.3 0.233,0.467 0.35,0.917 0.35,1.351 -0.034,0.699 -0.284,1.366 -0.75,2 -0.2,0.298 -0.417,0.532 -0.65,0.698 z"
         transform="matrix(5.5599876,0,0,5.5599876,128.05399,94.988786)" />
      <path
         id="path6067"
         fill="#f6e181"
         d="m 40.85,23.4 c -0.166,0.2 -0.35,0.4 -0.55,0.6 0.066,-0.1 0.134,-0.183 0.2,-0.25 0.134,-0.133 0.25,-0.25 0.35,-0.35 z m -5.6,-0.6 c 0.333,-0.1 0.75,-0.117 1.25,-0.05 0.233,0.067 0.566,0.15 1,0.25 0.434,0.133 0.75,0.217 0.95,0.25 0.633,0.1 1.267,0.1 1.899,0 0.301,-0.067 0.534,-0.133 0.7,-0.2 -0.366,0.4 -0.833,0.7 -1.399,0.9 -0.5,0.2 -1.051,0.316 -1.65,0.35 -0.566,0.034 -1.083,-0.017 -1.55,-0.15 -0.467,-0.133 -0.8,-0.316 -1,-0.55 -0.233,-0.3 -0.3,-0.567 -0.2,-0.8 z m -0.5,0.3 c -0.033,0.133 -0.066,0.25 -0.1,0.35 -0.101,0.2 -0.217,0.367 -0.351,0.5 h -0.05 c -0.1,0.133 -0.217,0.233 -0.35,0.3 -0.2,-0.033 -0.384,-0.117 -0.551,-0.25 -0.066,-0.067 -0.116,-0.133 -0.149,-0.2 -0.033,-0.033 -0.066,-0.066 -0.101,-0.1 -0.133,-0.267 -0.149,-0.583 -0.05,-0.95 0.134,-0.367 0.367,-0.717 0.7,-1.05 0.4,-0.367 0.85,-0.65 1.35,-0.85 0.601,-0.233 1.25,-0.317 1.95,-0.25 -0.233,0.033 -0.467,0.117 -0.7,0.25 -0.533,0.3 -0.916,0.667 -1.149,1.1 -0.066,0.167 -0.167,0.417 -0.3,0.75 -0.034,0.1 -0.067,0.2 -0.101,0.3 0.002,0.033 -0.015,0.067 -0.048,0.1 z M 25.15,5.05 C 25.35,4.65 25.667,4.267 26.1,3.9 26.267,3.767 26.567,3.567 27,3.3 27.4,3.033 27.684,2.834 27.85,2.7 28.384,2.266 28.817,1.683 29.151,0.95 29.284,0.717 29.384,0.5 29.451,0.3 L 29.5,0 v 0.05 c 0.1,0.767 0.033,1.534 -0.2,2.3 -0.2,0.7 -0.517,1.333 -0.95,1.9 -0.366,0.5 -0.767,0.9 -1.199,1.2 -0.467,0.267 -0.867,0.367 -1.2,0.3 C 25.517,5.65 25.25,5.417 25.15,5.05 Z M 25.3,7.1 V 7.65 L 25.25,7.7 c -0.033,0.033 -0.067,0.066 -0.1,0.1 -0.133,0.1 -0.3,0.133 -0.5,0.1 -0.1,0 -0.2,-0.017 -0.3,-0.05 -0.033,0 -0.083,-0.017 -0.15,-0.05 -0.3,-0.133 -0.55,-0.45 -0.75,-0.95 -0.2,-0.467 -0.3,-1.033 -0.3,-1.7 0,-0.7 0.133,-1.383 0.4,-2.05 C 23.817,2.367 24.2,1.717 24.7,1.15 L 24.725,1.1 24.75,1.05 V 1.1 l -0.1,0.25 c -0.1,0.233 -0.167,0.467 -0.2,0.7 -0.167,0.767 -0.15,1.5 0.05,2.2 0.033,0.2 0.133,0.533 0.3,1 0.067,0.133 0.133,0.267 0.2,0.4 0,0.067 0.017,0.117 0.05,0.15 v 0.05 l 0.025,0.025 c 0.054,0.163 0.096,0.288 0.125,0.375 0.067,0.3 0.1,0.583 0.1,0.85 z m 4.6,-0.25 c -0.4,0.667 -0.917,1.233 -1.551,1.7 -0.566,0.4 -1.199,0.7 -1.899,0.9 -0.6,0.2 -1.167,0.267 -1.7,0.2 C 24.383,9.617 24.1,9.533 23.9,9.4 23.933,9.334 23.967,9.283 24,9.25 24.033,9.25 24.067,9.233 24.1,9.2 24.467,9.033 24.767,8.766 25,8.4 l 0.15,-0.35 c 0.033,-0.066 0.067,-0.133 0.1,-0.2 0.2,0 0.433,0.017 0.7,0.05 0.467,0.033 0.816,0.05 1.05,0.05 0.7,-0.034 1.4,-0.233 2.1,-0.6 0.334,-0.167 0.6,-0.333 0.8,-0.5 z m -7.15,4.3 c 0.167,0 0.333,0.017 0.5,0.05 0.233,0 0.6,0.05 1.1,0.15 0.233,0.066 0.45,0.117 0.65,0.15 0.133,0 0.267,0.017 0.4,0.05 0.667,0.034 1.383,-0.083 2.15,-0.35 0.334,-0.133 0.617,-0.284 0.851,-0.45 -0.467,0.633 -1.051,1.133 -1.75,1.5 -0.634,0.367 -1.284,0.617 -1.95,0.75 -0.633,0.1 -1.217,0.1 -1.75,0 -0.5,-0.1 -0.85,-0.3 -1.05,-0.6 -0.066,-0.066 -0.117,-0.15 -0.15,-0.25 l 0.75,-1 z M 20,14.5 c 0.3,-0.067 0.633,-0.083 1,-0.05 0.1,0 0.2,0.017 0.3,0.05 0.233,0.033 0.583,0.117 1.05,0.25 0.167,0.033 0.333,0.067 0.5,0.1 0.233,0.066 0.417,0.1 0.55,0.1 0.667,0.133 1.383,0.066 2.15,-0.2 0.367,-0.1 0.667,-0.217 0.9,-0.35 -0.5,0.567 -1.117,1.033 -1.85,1.4 -0.633,0.3 -1.3,0.5 -2,0.6 -0.633,0.067 -1.2,0.033 -1.7,-0.1 -0.533,-0.167 -0.883,-0.4 -1.05,-0.7 -0.133,-0.233 -0.184,-0.467 -0.15,-0.7 z m 5.4,1.2 c 0.067,-0.1 0.15,-0.2 0.25,-0.3 0.167,-0.2 0.333,-0.383 0.5,-0.55 -0.233,0.267 -0.483,0.55 -0.75,0.85 z m -1.9,1.45 c -0.133,0.1 -0.283,0.184 -0.45,0.25 0.067,-0.033 0.133,-0.066 0.2,-0.1 0.067,-0.033 0.15,-0.083 0.25,-0.15 z M 23,18.9 23.35,18.55 c 0.167,-0.2 0.333,-0.383 0.5,-0.55 -0.233,0.3 -0.517,0.6 -0.85,0.9 z m -5.4,-1.25 c 0.367,-0.1 0.767,-0.117 1.2,-0.05 H 19 c 0.233,0.033 0.6,0.117 1.1,0.25 0.333,0.1 0.6,0.167 0.8,0.2 0.067,0 0.133,0.017 0.2,0.05 0.7,0.1 1.433,0.017 2.2,-0.25 0.333,-0.1 0.617,-0.217 0.85,-0.35 -0.5,0.6 -1.1,1.067 -1.8,1.4 -0.667,0.333 -1.333,0.533 -2,0.6 -0.667,0.067 -1.25,0.033 -1.75,-0.1 -0.5,-0.133 -0.833,-0.35 -1,-0.65 -0.2,-0.3 -0.25,-0.583 -0.15,-0.85 z m -1.75,6.9 c 0.066,0.034 0.133,0.067 0.2,0.1 0.067,0.033 0.133,0.05 0.2,0.05 0.033,0 0.067,0.017 0.1,0.05 0.233,0.033 0.5,0.067 0.8,0.1 0.067,-0.233 0.15,-0.467 0.25,-0.7 l 0.85,-0.25 c 0.033,0 0.067,-0.017 0.1,-0.05 -0.033,0.2 -0.05,0.383 -0.05,0.55 v 0.35 c 0.233,-0.033 0.434,-0.083 0.6,-0.15 H 19 c -0.034,10e-4 -0.068,0.018 -0.1,0.05 -0.167,0.133 -0.35,0.267 -0.55,0.4 -0.4,0.233 -0.833,0.417 -1.3,0.55 H 17 c -0.3,0.066 -0.583,0.133 -0.85,0.2 H 15.1 c -0.2,0 -0.383,-0.017 -0.55,-0.05 -0.167,-0.033 -0.333,-0.067 -0.5,-0.1 -0.2,-0.066 -0.383,-0.133 -0.55,-0.2 -0.433,-0.2 -0.7,-0.467 -0.8,-0.8 -0.034,-0.033 -0.05,-0.066 -0.05,-0.1 l 0.6,-0.85 c 0.2,0 0.383,0.017 0.55,0.05 0.133,0.033 0.267,0.067 0.4,0.1 0.233,0.066 0.55,0.2 0.95,0.4 0.067,0.033 0.133,0.067 0.2,0.1 0.033,0.033 0.083,0.05 0.15,0.05 0.067,0.033 0.133,0.067 0.2,0.1 0.067,0.033 0.117,0.05 0.15,0.05 z m -0.65,-3.6 c 0.4,-0.1 0.85,-0.1 1.35,0 0.133,0.033 0.284,0.066 0.45,0.1 0.2,0.067 0.4,0.133 0.6,0.2 h 0.1 c 0.433,0.133 0.75,0.217 0.95,0.25 0.667,0.1 1.383,0.05 2.15,-0.15 0.367,-0.133 0.667,-0.25 0.9,-0.35 -0.5,0.567 -1.117,1.017 -1.85,1.35 -0.367,0.167 -0.733,0.3 -1.1,0.4 -0.167,0.033 -0.333,0.067 -0.5,0.1 h -0.4 v 0.05 c -0.667,0.033 -1.25,-0.017 -1.75,-0.15 -0.5,-0.167 -0.833,-0.4 -1,-0.7 -0.133,-0.267 -0.184,-0.517 -0.15,-0.75 0.1,-0.1 0.183,-0.217 0.25,-0.35 z m 7.65,0 c -0.2,0.167 -0.383,0.367 -0.55,0.6 -0.4,0.534 -0.65,1.083 -0.75,1.65 -0.033,0.167 -0.066,0.433 -0.1,0.8 v 0.05 c 0,0.2 -0.017,0.367 -0.05,0.5 v 0.4 C 21.334,25.383 21.2,25.733 21,26 l 1,-0.25 c 0.067,-0.033 0.15,-0.067 0.25,-0.1 l 0.05,0.05 c -0.466,0.133 -0.933,0.283 -1.4,0.45 l 0.05,-0.05 c -0.1,0.033 -0.2,0.05 -0.3,0.05 -0.2,-0.033 -0.383,-0.133 -0.55,-0.3 -0.2,-0.233 -0.3,-0.567 -0.3,-1 0.034,-0.434 0.167,-0.9 0.4,-1.4 0.233,-0.534 0.566,-1.017 1,-1.45 0.467,-0.467 1.017,-0.817 1.65,-1.05 z m -1.15,7.7 c 0.233,0.267 0.417,0.466 0.55,0.6 0.4,0.4 0.917,0.717 1.55,0.95 0.3,0.1 0.567,0.166 0.8,0.2 -0.633,0.133 -1.283,0.133 -1.95,0 -0.6,-0.1 -1.15,-0.284 -1.65,-0.55 -0.467,-0.267 -0.85,-0.566 -1.15,-0.899 -0.267,-0.334 -0.383,-0.65 -0.35,-0.95 0.033,-0.267 0.117,-0.467 0.25,-0.6 0.133,-0.034 0.25,-0.084 0.35,-0.15 0.333,0.134 0.65,0.35 0.95,0.65 0.067,0.066 0.15,0.166 0.25,0.3 0.1,0.1 0.217,0.233 0.35,0.399 z m 2.6,-3.5 c -0.3,0.033 -0.583,-0.083 -0.85,-0.35 -0.2,-0.233 -0.284,-0.566 -0.25,-1 0.033,-0.433 0.183,-0.883 0.45,-1.35 0.267,-0.5 0.617,-0.934 1.05,-1.3 0.489,-0.424 1.04,-0.724 1.649,-0.9 -0.177,0.146 -0.36,0.33 -0.55,0.55 -0.4,0.467 -0.667,0.967 -0.8,1.5 v 0.05 c -0.033,0.2 -0.067,0.467 -0.1,0.8 -0.033,0.4 -0.066,0.7 -0.1,0.9 -0.033,0.067 -0.05,0.117 -0.05,0.15 -0.099,0.367 -0.249,0.683 -0.449,0.95 z m 3.85,-3 v 0.4 c -0.067,0.367 -0.117,0.65 -0.15,0.85 0,0.067 -0.017,0.133 -0.05,0.2 -0.101,0.333 -0.25,0.6 -0.45,0.8 -0.3,0.033 -0.583,-0.083 -0.85,-0.35 -0.2,-0.233 -0.284,-0.55 -0.25,-0.95 0.033,-0.434 0.183,-0.883 0.449,-1.35 0.266,-0.467 0.634,-0.867 1.101,-1.2 0.5,-0.4 1.066,-0.667 1.7,-0.8 -0.167,0.133 -0.351,0.3 -0.551,0.5 -0.433,0.433 -0.716,0.917 -0.85,1.45 -0.032,0.1 -0.065,0.25 -0.099,0.45 z m 4.6,-2.3 c -0.2,0.033 -0.4,0.066 -0.6,0.1 H 31.9 c 0.3,-0.033 0.583,-0.067 0.85,-0.1 z M 31.6,21.9 c -0.033,0.133 -0.066,0.3 -0.1,0.5 -0.066,0.367 -0.116,0.633 -0.15,0.8 -0.033,0.1 -0.066,0.183 -0.1,0.25 0,0.033 -0.017,0.066 -0.05,0.1 -0.101,0.233 -0.25,0.434 -0.45,0.6 -0.1,0 -0.2,-0.017 -0.3,-0.05 -0.2,-0.067 -0.367,-0.2 -0.5,-0.4 -0.2,-0.233 -0.267,-0.55 -0.2,-0.95 0.066,-0.433 0.25,-0.85 0.55,-1.25 0.3,-0.433 0.684,-0.783 1.15,-1.05 0.553,-0.325 1.152,-0.525 1.8,-0.6 h 0.05 c -0.2,0.1 -0.416,0.25 -0.649,0.45 -0.467,0.367 -0.784,0.8 -0.95,1.3 -0.034,0.067 -0.067,0.167 -0.101,0.3 z M 23.8,2 V 2.05 H 23.75 C 23.782,2.049 23.799,2.033 23.8,2 Z m -2.15,5.2 c 0.067,0.167 0.167,0.35 0.3,0.55 0.2,0.433 0.35,0.767 0.45,1 0.033,0.1 0.067,0.2 0.1,0.3 0.033,0.067 0.05,0.117 0.05,0.15 0.1,0.333 0.133,0.65 0.1,0.95 -0.1,0.1 -0.2,0.167 -0.3,0.2 -0.2,0.1 -0.45,0.1 -0.75,0 -0.333,-0.1 -0.617,-0.383 -0.85,-0.85 -0.267,-0.433 -0.433,-0.983 -0.5,-1.65 -0.067,-0.7 -0.017,-1.4 0.15,-2.1 0.194,-0.744 0.511,-1.41 0.95,-2 L 21.3,3.9 c -0.033,0.233 -0.066,0.467 -0.1,0.7 -0.067,0.8 0.033,1.533 0.3,2.2 0.033,0.1 0.083,0.233 0.15,0.4 z m -1.55,5.75 c -0.267,0.267 -0.617,0.35 -1.05,0.25 -0.333,-0.067 -0.633,-0.333 -0.9,-0.8 -0.267,-0.433 -0.45,-0.967 -0.55,-1.6 -0.133,-0.7 -0.133,-1.4 0,-2.1 0.132,-0.792 0.407,-1.5 0.825,-2.125 L 18.4,6.75 c -0.033,0.267 -0.066,0.517 -0.1,0.75 0,0.8 0.133,1.517 0.4,2.15 0.066,0.133 0.167,0.3 0.3,0.5 0.067,0.133 0.15,0.267 0.25,0.4 0.233,0.434 0.4,0.767 0.5,1 0.067,0.067 0.117,0.15 0.15,0.25 0.133,0.4 0.2,0.783 0.2,1.15 z m -6.8,16.7 c -0.633,0.333 -1.267,0.699 -1.9,1.1 -1.233,0.7 -2.733,1.65 -4.5,2.85 -0.267,0.2 -0.5,0.367 -0.7,0.5 0.267,-0.399 0.517,-0.783 0.75,-1.149 0.733,-0.5 1.5,-0.983 2.3,-1.45 0.1,-0.066 0.2,-0.116 0.3,-0.15 l 3.1,-1.75 h 0.05 v -0.05 l 0.1,-0.024 0.25,-0.125 c 0.067,0.098 0.15,0.181 0.25,0.248 z M 12.75,29.4 h 0.025 c -0.084,0.041 -0.176,0.075 -0.275,0.1 0.1,-0.033 0.183,-0.066 0.25,-0.1 z m -1.6,-2.7 c 0.133,0.033 0.267,0.066 0.4,0.1 0.2,0.067 0.483,0.184 0.85,0.351 0.3,0.133 0.533,0.216 0.7,0.25 0.033,0.033 0.083,0.05 0.15,0.05 0.033,0.033 0.083,0.05 0.15,0.05 0.233,0.066 0.483,0.116 0.75,0.15 -0.033,-0.233 -0.017,-0.467 0.05,-0.7 l 1.15,-0.15 c 0.035,-10e-4 0.085,-0.018 0.15,-0.05 0.031,0 0.081,-0.017 0.15,-0.05 -0.069,0.035 -0.119,0.068 -0.15,0.1 h -0.15 v 0.05 c 0.033,0.266 0.05,0.483 0.05,0.65 h 0.15 c 0.1,-0.033 0.2,-0.066 0.3,-0.1 -0.067,0.066 -0.15,0.133 -0.25,0.199 -0.067,0.034 -0.133,0.067 -0.2,0.101 -0.367,0.267 -0.75,0.467 -1.15,0.6 h -0.1 c -0.233,0.066 -0.45,0.117 -0.65,0.15 -0.233,0.066 -0.467,0.1 -0.7,0.1 h -0.45 c -0.533,-0.033 -1,-0.133 -1.4,-0.3 -0.267,-0.134 -0.45,-0.267 -0.55,-0.4 V 27.8 Z m 5.15,-2.1 c 0.036,-0.071 0.069,-0.138 0.1,-0.2 h 0.05 c -0.062,0.062 -0.113,0.129 -0.15,0.2 z m 17.05,-0.15 h 0.15 l 0.2,-0.1 c 0.033,0 0.066,-0.017 0.1,-0.05 h 0.05 c 0.134,0.133 0.284,0.284 0.45,0.45 0.334,0.267 0.584,0.467 0.75,0.6 0.5,0.4 1.101,0.717 1.8,0.95 0.334,0.1 0.617,0.167 0.851,0.2 -0.634,0.1 -1.3,0.083 -2,-0.05 -0.634,-0.1 -1.25,-0.284 -1.851,-0.55 -0.533,-0.267 -0.966,-0.566 -1.3,-0.9 -0.166,-0.133 -0.3,-0.283 -0.399,-0.45 l 0.5,-0.05 c 0.233,0.033 0.465,0.017 0.699,-0.05 z m -2.65,3.3 h 0.05 c 0.866,0.134 1.767,0.167 2.7,0.1 -0.285,0.034 -0.585,0.051 -0.9,0.051 C 31.917,27.9 31.3,27.85 30.7,27.75 Z m 1.05,-1.55 c 0.1,0.1 0.184,0.167 0.25,0.2 0.467,0.434 1.033,0.767 1.7,1 0.333,0.133 0.616,0.216 0.85,0.25 -0.666,0.1 -1.35,0.066 -2.05,-0.101 -0.6,-0.133 -1.184,-0.35 -1.75,-0.65 -0.5,-0.3 -0.917,-0.617 -1.25,-0.95 -0.3,-0.333 -0.434,-0.633 -0.4,-0.9 V 25 l 1.301,-0.15 c 0.1,0.066 0.183,0.133 0.25,0.2 0.166,0.133 0.399,0.367 0.699,0.7 0.167,0.167 0.3,0.317 0.4,0.45 z m 2.85,0.6 c -0.241,-0.008 -0.475,-0.025 -0.699,-0.05 h 0.1 c 0.192,0.021 0.393,0.038 0.599,0.05 z M 16.2,17.95 h 0.05 c -0.3,0.433 -0.633,0.9 -1,1.4 V 19.3 c -0.067,0.067 -0.133,0.117 -0.2,0.15 -0.233,0.167 -0.517,0.216 -0.85,0.15 -0.333,-0.1 -0.633,-0.367 -0.9,-0.8 -0.3,-0.433 -0.517,-0.966 -0.65,-1.6 -0.133,-0.7 -0.133,-1.4 0,-2.1 0.1,-0.8 0.35,-1.517 0.75,-2.15 v 0.2 c -0.033,0.233 -0.05,0.483 -0.05,0.75 -0.033,0.8 0.1,1.5 0.4,2.1 0.1,0.2 0.267,0.483 0.5,0.85 0.033,0.033 0.05,0.066 0.05,0.1 0.133,0.2 0.25,0.367 0.35,0.5 0.1,0.167 0.167,0.316 0.2,0.45 0.233,0.467 0.367,0.917 0.4,1.35 z m -3.55,-3.9 c 0.033,-0.034 0.049,-0.068 0.05,-0.1 V 14 Z m -1.05,2.7 v 0.15 l -0.05,0.05 c 0.032,-0.063 0.049,-0.13 0.05,-0.2 z m -0.9,-0.2 v 0.25 c 0,0.2 0.017,0.417 0.05,0.65 0.1,0.767 0.333,1.417 0.7,1.95 0.033,0.033 0.066,0.083 0.1,0.15 0.133,0.133 0.317,0.333 0.55,0.6 0.267,0.333 0.467,0.6 0.6,0.8 0.1,0.1 0.183,0.216 0.25,0.35 0.1,0.2 0.183,0.4 0.25,0.6 l 0.45,-0.6 c 0.1,-0.033 0.2,-0.066 0.3,-0.1 -0.233,0.333 -0.467,0.667 -0.7,1 0,0.033 -0.017,0.05 -0.05,0.05 -0.133,0.2 -0.317,0.317 -0.55,0.35 h -0.3 c -0.3,0 -0.617,-0.184 -0.95,-0.55 -0.333,-0.367 -0.6,-0.833 -0.8,-1.4 -0.2,-0.633 -0.3,-1.283 -0.3,-1.95 -0.033,-0.767 0.1,-1.483 0.4,-2.15 z m 1.05,7.85 c -0.2,0.267 -0.417,0.567 -0.65,0.9 v 0.15 c -0.067,0.133 -0.167,0.233 -0.3,0.3 -0.133,0.067 -0.3,0.1 -0.5,0.1 C 10,25.817 9.717,25.633 9.45,25.3 9.15,24.967 8.916,24.533 8.75,24 8.55,23.433 8.45,22.85 8.45,22.25 8.483,21.55 8.617,20.9 8.85,20.3 v 0.2 c 0,0.2 0.017,0.417 0.05,0.65 0.1,0.667 0.317,1.25 0.65,1.75 0.1,0.133 0.284,0.367 0.55,0.7 0.267,0.3 0.45,0.533 0.55,0.7 0.133,0.2 0.233,0.4 0.3,0.6 0.133,-0.167 0.267,-0.333 0.4,-0.5 z m 4.6,-11.7 v 0.05 c 0.1,0.2 0.267,0.5 0.5,0.9 0.267,0.4 0.45,0.717 0.55,0.95 0.033,0.066 0.067,0.133 0.1,0.2 0.167,0.434 0.25,0.833 0.25,1.2 -0.267,0.3 -0.617,0.4 -1.05,0.3 -0.333,-0.1 -0.633,-0.367 -0.9,-0.8 -0.267,-0.467 -0.466,-1.017 -0.6,-1.65 -0.1,-0.7 -0.083,-1.4 0.05,-2.1 0.133,-0.767 0.4,-1.483 0.8,-2.15 L 16,9.85 c -0.033,0.233 -0.05,0.467 -0.05,0.7 -0.033,0.8 0.1,1.517 0.4,2.15 z m -1.1,-1.95 c 0.018,-0.019 0.035,-0.044 0.05,-0.075 V 10.7 Z M 9.65,27.4 c -0.467,0.666 -0.967,1.383 -1.5,2.149 -1.566,2.267 -2.767,3.95 -3.6,5.05 C 3.517,36 2.917,36.7 2.75,36.7 2.517,36.733 2.383,36.667 2.35,36.5 2.583,36.134 2.817,35.8 3.05,35.5 3.35,35.1 3.667,34.7 4,34.3 L 6.15,31.45 C 7.084,30.217 8,28.983 8.9,27.75 8.993,27.626 9.085,27.501 9.175,27.375 9.323,27.42 9.481,27.428 9.65,27.4 Z m 8.75,-0.95 c -0.033,0.167 -0.066,0.333 -0.1,0.5 l 0.5,-0.2 c 0.1,0.033 0.2,0.067 0.3,0.1 -0.3,0.133 -0.6,0.266 -0.9,0.4 -0.034,0 -0.067,0.017 -0.1,0.05 -0.167,0.066 -0.35,0.05 -0.55,-0.05 -0.066,-0.033 -0.133,-0.066 -0.2,-0.1 -0.2,-0.167 -0.317,-0.45 -0.35,-0.851 -0.033,-0.066 -0.05,-0.133 -0.05,-0.2 l 0.2,-0.1 c 0.067,-0.033 0.117,-0.067 0.15,-0.1 l 0.5,-0.3 c 0.067,-0.067 0.15,-0.133 0.25,-0.2 0.1,-0.066 0.2,-0.133 0.3,-0.2 v 0.05 c 0.033,0.367 0.05,0.65 0.05,0.85 z m 4.35,4.3 c -0.033,0.033 -0.067,0.05 -0.1,0.05 -0.667,0.066 -1.283,0.066 -1.85,0 h 0.15 c 0.567,0.033 1.167,0.016 1.8,-0.05 z m 0.65,-4.6 c 0.3,0.1 0.583,0.283 0.85,0.55 0.067,0.033 0.117,0.066 0.15,0.1 0.133,0.133 0.35,0.367 0.65,0.7 0.233,0.3 0.417,0.517 0.55,0.65 h 0.05 c 0.015,0.016 0.031,0.032 0.05,0.05 0.391,0.408 0.908,0.725 1.55,0.95 0.3,0.1 0.566,0.166 0.8,0.199 -0.633,0.101 -1.3,0.084 -2,-0.05 -0.6,-0.1 -1.15,-0.3 -1.65,-0.6 -0.5,-0.267 -0.9,-0.566 -1.2,-0.9 -0.267,-0.333 -0.383,-0.649 -0.35,-0.95 0.033,-0.301 0.15,-0.516 0.35,-0.649 0.067,0 0.133,-0.017 0.2,-0.05 z m 7.85,2.5 c -0.634,0.066 -1.3,0.033 -2,-0.101 -0.6,-0.166 -1.167,-0.399 -1.7,-0.7 -0.5,-0.3 -0.883,-0.616 -1.149,-0.95 -0.301,-0.333 -0.434,-0.65 -0.4,-0.95 0.033,-0.2 0.116,-0.367 0.25,-0.5 l 0.5,-0.1 c 0.2,0.133 0.417,0.283 0.65,0.45 0.066,0.067 0.133,0.133 0.199,0.2 0.134,0.133 0.334,0.367 0.601,0.7 0.1,0.1 0.184,0.2 0.25,0.3 0.166,0.167 0.283,0.3 0.35,0.4 0.434,0.399 0.983,0.733 1.65,1 0.299,0.134 0.566,0.217 0.799,0.251 z M 15.425,27.825 c 0.056,-0.057 0.115,-0.114 0.175,-0.175 0.033,0 0.066,-0.017 0.1,-0.051 l 0.2,-0.25 c -0.066,0.134 -0.167,0.25 -0.3,0.351 -0.06,0.03 -0.119,0.071 -0.175,0.125 z M 17.5,28.35 c 0.1,0.067 0.217,0.167 0.35,0.301 0.066,0.066 0.133,0.149 0.2,0.25 0.1,0.133 0.25,0.366 0.45,0.699 0.133,0.233 0.25,0.434 0.35,0.601 l 0.1,0.1 c 0.3,0.434 0.733,0.783 1.3,1.05 0.267,0.101 0.5,0.184 0.7,0.25 -0.6,0.067 -1.2,0.017 -1.8,-0.149 -0.533,-0.167 -1,-0.4 -1.4,-0.7 -0.4,-0.3 -0.7,-0.634 -0.9,-1 -0.2,-0.333 -0.267,-0.634 -0.2,-0.9 v -0.149 c 0.3,-0.103 0.583,-0.22 0.85,-0.353 z M 15.85,28 c 0.066,0.066 0.167,0.134 0.3,0.2 -0.3,0.133 -0.6,0.267 -0.9,0.399 -0.033,0.067 -0.05,0.117 -0.05,0.15 -0.1,0.066 -0.217,0.083 -0.35,0.05 -0.133,0 -0.25,-0.05 -0.35,-0.149 -0.033,0 -0.067,-0.017 -0.1,-0.051 l 0.35,-0.25 c 0.1,-0.066 0.2,-0.133 0.3,-0.199 0.133,-0.101 0.25,-0.2 0.35,-0.301 0,0.134 -0.017,0.267 -0.05,0.4 0.167,-0.065 0.333,-0.149 0.5,-0.249 z m -2.25,2.25 c 0.367,-0.167 0.717,-0.35 1.05,-0.55 0.1,0.066 0.184,0.149 0.25,0.25 0.1,0.133 0.233,0.333 0.4,0.6 0.167,0.3 0.3,0.517 0.4,0.65 0.3,0.366 0.7,0.649 1.2,0.85 0.233,0.101 0.434,0.167 0.6,0.2 -0.533,0.1 -1.067,0.083 -1.6,-0.05 C 15.433,32.099 15.017,31.917 14.65,31.65 14.283,31.417 14,31.134 13.8,30.8 13.7,30.634 13.633,30.45 13.6,30.25 Z m 3.05,2.2 c -0.233,0.066 -0.483,0.1 -0.75,0.1 -0.131,0.008 -0.256,0.008 -0.375,0 0.339,-10e-4 0.698,-0.034 1.075,-0.1 z"
         transform="matrix(5.5599876,0,0,5.5599876,128.05399,94.988786)" />
      <path
         id="path6069"
         fill="#aa9740"
         d="m 38.7,25.05 c -0.066,0.034 -0.117,0.05 -0.15,0.05 l -1.15,0.35 c -0.267,0.066 -0.551,0.117 -0.851,0.15 -0.5,0.033 -0.934,-0.05 -1.3,-0.25 -0.366,-0.167 -0.634,-0.4 -0.8,-0.7 -0.066,-0.133 -0.117,-0.267 -0.15,-0.4 l -0.45,0.05 H 33.8 c 0.034,-0.001 0.068,-0.018 0.101,-0.05 0.133,-0.067 0.25,-0.167 0.35,-0.3 h 0.05 c 0.134,-0.133 0.25,-0.3 0.351,-0.5 0.033,-0.1 0.066,-0.217 0.1,-0.35 v 0.05 c 0.033,0.1 0.066,0.2 0.1,0.3 0.034,0.167 0.101,0.333 0.2,0.5 0.033,0.066 0.084,0.133 0.15,0.2 0,0.033 0.017,0.067 0.05,0.1 0.657,0.756 1.782,1.022 3.375,0.8 0.025,0.003 0.05,0.003 0.073,0 z M 25.3,7.65 V 7.15 L 25.35,7.1 H 25.3 C 25.3,6.833 25.267,6.55 25.2,6.25 25.171,6.163 25.129,6.038 25.075,5.875 c 0.091,0.089 0.183,0.164 0.275,0.225 0.167,0.167 0.35,0.283 0.55,0.35 0.1,0.033 0.183,0.066 0.25,0.1 0.066,0 0.116,0.017 0.149,0.05 1.101,0.233 2.167,-0.5 3.2,-2.2 -0.017,0.067 -0.033,0.133 -0.05,0.2 L 28.3,6.9 c -0.333,0.467 -0.717,0.767 -1.149,0.9 -0.4,0.1 -0.784,0.067 -1.15,-0.1 -0.167,-0.1 -0.333,-0.217 -0.5,-0.35 -0.068,0.1 -0.134,0.2 -0.201,0.3 z m 1.95,2.6 c -0.1,0.092 -0.2,0.175 -0.3,0.25 l -1.95,1 c -0.2,-0.033 -0.417,-0.083 -0.65,-0.15 -0.5,-0.1 -0.867,-0.15 -1.1,-0.15 -0.167,-0.034 -0.333,-0.05 -0.5,-0.05 -0.033,-0.033 -0.067,-0.083 -0.1,-0.15 l -0.15,0.15 -0.75,1 -0.45,0.6 c 0.067,0.2 0.15,0.367 0.25,0.5 0.616,0.907 1.832,1.14 3.65,0.7 0.033,-0.008 0.066,-0.017 0.1,-0.025 0.013,-0.011 0.03,-0.02 0.05,-0.025 -0.033,0.033 -0.083,0.05 -0.15,0.05 l -2.25,0.9 h -0.1 C 22.683,14.817 22.517,14.783 22.35,14.75 21.883,14.617 21.533,14.533 21.3,14.5 21.2,14.467 21.1,14.45 21,14.45 20.8,14.283 20.667,14.083 20.6,13.85 20.567,13.817 20.55,13.783 20.55,13.75 L 20,14.5 l -0.3,0.4 -0.5,0.7 c 0.033,0.333 0.133,0.617 0.3,0.85 0.567,0.966 1.817,1.25 3.75,0.85 -0.067,0.034 -0.133,0.067 -0.2,0.1 L 20.9,18.05 C 20.7,18.017 20.433,17.95 20.1,17.85 19.6,17.717 19.233,17.633 19,17.6 H 18.8 C 18.633,17.433 18.517,17.233 18.45,17 18.416,16.867 18.4,16.75 18.4,16.65 l -0.8,1 -0.15,0.25 -0.55,0.7 c 0.033,0.367 0.133,0.7 0.3,1 0.562,0.959 1.795,1.242 3.7,0.85 h 0.05 c -0.067,0.033 -0.117,0.05 -0.15,0.05 l -2.45,0.75 H 18.3 c -0.2,0.033 -0.4,0.033 -0.6,0 H 17.6 C 17.4,21.183 17.2,21.117 17,21.05 L 16.9,21 C 16.533,20.8 16.3,20.5 16.2,20.1 H 16.15 C 16.117,19.967 16.1,19.833 16.1,19.7 l -0.9,1.25 c -0.067,0.133 -0.15,0.25 -0.25,0.35 -0.25,0.354 -0.5,0.712 -0.75,1.075 0.082,-0.114 0.166,-0.222 0.25,-0.325 0.033,0.3 0.117,0.583 0.25,0.85 0.267,0.5 0.733,0.817 1.4,0.95 0.2,0.066 0.417,0.1 0.65,0.1 0.233,0.033 0.467,0.033 0.7,0 0.3,-0.034 0.6,-0.067 0.9,-0.1 -0.033,0.033 -0.067,0.05 -0.1,0.05 L 17.4,24.15 16.45,24.4 H 16.4 l -0.55,0.15 c -0.033,0 -0.083,-0.017 -0.15,-0.05 -0.067,-0.033 -0.133,-0.067 -0.2,-0.1 -0.067,0 -0.117,-0.017 -0.15,-0.05 -0.067,-0.033 -0.133,-0.067 -0.2,-0.1 -0.4,-0.2 -0.717,-0.333 -0.95,-0.4 -0.133,-0.033 -0.267,-0.067 -0.4,-0.1 -0.066,-0.1 -0.117,-0.217 -0.15,-0.35 0,-0.066 -0.017,-0.133 -0.05,-0.2 -0.116,0.167 -0.232,0.334 -0.35,0.5 l -0.6,0.85 c -0.162,0.227 -0.32,0.469 -0.475,0.725 0.017,0.055 0.025,0.097 0.025,0.125 0.2,0.533 0.617,0.917 1.25,1.15 h 0.1 c 0.2,0.067 0.434,0.117 0.7,0.15 0.333,0.066 0.7,0.083 1.1,0.05 h 0.15 c -0.065,0.032 -0.115,0.049 -0.15,0.05 l -1.15,0.15 -0.75,0.1 c -0.034,0.167 -0.05,0.316 -0.05,0.45 -0.066,0 -0.117,-0.017 -0.15,-0.05 -0.067,0 -0.117,-0.017 -0.15,-0.05 l 0.15,-0.351 -0.3,0.05 c -0.534,-0.033 -0.967,-0.2 -1.3,-0.5 -0.1,-0.067 -0.183,-0.15 -0.25,-0.25 l -0.25,0.35 -0.75,1.1 c -0.167,0.267 -0.333,0.517 -0.5,0.75 0.467,0.634 1.417,0.917 2.85,0.851 -0.067,0.033 -0.15,0.066 -0.25,0.1 l -1.55,0.25 h -0.5 C 9.983,29.717 9.617,29.6 9.35,29.4 8.517,30.599 7.717,31.783 6.95,32.95 6.717,33.316 6.467,33.7 6.2,34.1 c -0.3,0.434 -0.583,0.884 -0.85,1.351 0.2,-0.167 0.433,-0.351 0.7,-0.55 0.9,-0.667 1.6,-1.2 2.1,-1.601 0.967,-0.7 1.833,-1.283 2.6,-1.75 0.867,-0.566 1.933,-1.166 3.2,-1.8 -0.2,0.033 -0.383,0 -0.55,-0.1 H 13.3 C 13.2,29.583 13.117,29.5 13.05,29.4 L 12.8,29.525 V 29.5 c 0.067,-0.066 0.133,-0.116 0.2,-0.15 V 29.3 l 0.85,-0.399 0.05,0.05 C 13.933,28.983 13.967,29 14,29 l 0.05,0.05 0.2,0.05 c 0,0.034 0.017,0.051 0.05,0.051 l 0.2,0.05 h 0.4 c -0.033,0.033 -0.083,0.083 -0.15,0.149 0.1,-0.066 0.2,-0.116 0.3,-0.149 2.067,-1 4.034,-1.834 5.9,-2.5 1.233,-0.434 2.5,-0.817 3.8,-1.15 0.333,-0.1 0.683,-0.2 1.05,-0.3 0.1,0 0.2,-0.017 0.3,-0.05 0.134,-0.034 0.267,-0.067 0.4,-0.1 0.4,-0.1 0.767,-0.184 1.1,-0.25 0.367,-0.067 0.7,-0.133 1,-0.2 0.267,-0.033 0.483,-0.066 0.65,-0.1 -0.2,-0.033 -0.366,-0.083 -0.5,-0.15 -0.134,0 -0.267,0.017 -0.4,0.05 -0.133,0 -0.25,0.017 -0.35,0.05 0.167,-0.1 0.35,-0.167 0.55,-0.2 l -0.2,-0.2 c -0.199,-0.133 -0.333,-0.3 -0.399,-0.5 0.033,-0.067 0.05,-0.133 0.05,-0.2 0.033,-0.2 0.083,-0.483 0.15,-0.85 v -0.4 l 1.1,-1.15 c 0.055,-0.034 0.113,-0.067 0.175,-0.1 0.105,-0.066 0.214,-0.133 0.325,-0.2 v 0.025 L 29,23.45 c 0.033,0.066 0.066,0.117 0.1,0.15 0.034,0.033 0.051,0.066 0.051,0.1 l 0.649,0.5 v 0.05 h 0.05 c 0.067,0.033 0.117,0.067 0.15,0.1 0.1,0.033 0.184,0.066 0.25,0.1 0.066,-0.034 0.116,-0.05 0.15,-0.05 l 0.199,-0.15 c 0.067,-0.033 0.117,-0.067 0.15,-0.1 0.2,-0.167 0.35,-0.367 0.45,-0.6 0.033,-0.033 0.05,-0.066 0.05,-0.1 0.033,-0.067 0.066,-0.15 0.1,-0.25 0.034,-0.167 0.084,-0.434 0.15,-0.8 0.033,-0.2 0.066,-0.367 0.1,-0.5 l 1.2,-0.85 c 0.16,-0.08 0.327,-0.146 0.5,-0.2 -1.1,0.9 -1.45,1.75 -1.05,2.55 0,0.033 0.017,0.067 0.05,0.1 0.101,0.2 0.25,0.383 0.45,0.55 0.066,0.067 0.134,0.117 0.2,0.15 0.1,0.1 0.2,0.167 0.3,0.2 0.033,0.033 0.066,0.05 0.1,0.05 -0.233,0.066 -0.466,0.083 -0.699,0.05 l -0.5,0.05 -0.75,0.15 c 0.166,0.8 1.033,1.483 2.6,2.05 H 33.9 L 33.4,26.7 c -0.567,-0.133 -1.117,-0.3 -1.65,-0.5 -0.1,-0.133 -0.233,-0.284 -0.4,-0.45 -0.3,-0.333 -0.533,-0.567 -0.699,-0.7 -0.067,-0.066 -0.15,-0.133 -0.25,-0.2 L 29.1,25 28.451,25.1 c -0.033,0.1 -0.05,0.2 -0.05,0.3 -0.034,0.867 0.75,1.65 2.35,2.35 H 30.7 l -0.45,-0.1 C 29.616,27.516 29.017,27.299 28.45,27 28.384,26.9 28.3,26.8 28.2,26.7 27.933,26.367 27.733,26.133 27.599,26 27.533,25.933 27.466,25.867 27.4,25.8 c -0.034,-0.167 -0.034,-0.35 0,-0.55 l -0.65,0.1 -0.5,0.1 -0.6,0.1 H 25.6 c -0.167,0.233 -0.267,0.483 -0.3,0.75 -0.066,0.934 0.667,1.75 2.2,2.45 L 27.25,28.7 25.8,28.25 C 25.765,28.232 25.732,28.216 25.7,28.2 25.681,28.182 25.664,28.166 25.65,28.15 H 25.6 C 25.467,28.016 25.283,27.799 25.05,27.5 24.75,27.167 24.533,26.933 24.4,26.8 24.367,26.767 24.317,26.734 24.25,26.7 V 26.65 L 24.3,26.2 v -0.05 h 0.05 c 0.033,-0.1 0.066,-0.2 0.1,-0.3 -0.333,0.1 -0.684,0.2 -1.05,0.3 -0.066,0.033 -0.133,0.05 -0.2,0.05 -0.133,0.033 -0.25,0.083 -0.35,0.15 -0.133,0.033 -0.267,0.066 -0.4,0.1 -0.167,0.267 -0.267,0.533 -0.3,0.8 -0.065,0.914 0.635,1.698 2.1,2.35 0.036,0.021 0.069,0.037 0.1,0.051 -0.067,0 -0.117,-0.017 -0.15,-0.051 h -0.15 c -0.7,-0.133 -1.35,-0.35 -1.95,-0.649 -0.167,-0.101 -0.3,-0.2 -0.4,-0.3 L 21.65,28.6 c -0.133,-0.166 -0.25,-0.3 -0.35,-0.399 0,-0.033 -0.017,-0.084 -0.05,-0.15 -0.133,-0.3 -0.15,-0.6 -0.05,-0.899 0.033,-0.134 0.083,-0.234 0.15,-0.3 h -0.1 l -1.15,0.4 c -0.1,0.066 -0.217,0.116 -0.35,0.15 -0.233,0.1 -0.467,0.199 -0.7,0.3 -0.133,0.233 -0.2,0.467 -0.2,0.7 -0.1,0.966 0.6,1.767 2.1,2.399 H 20.8 l -0.35,-0.1 c -0.6,-0.101 -1.133,-0.267 -1.6,-0.5 -0.1,-0.167 -0.217,-0.367 -0.35,-0.601 -0.2,-0.333 -0.35,-0.566 -0.45,-0.699 -0.066,-0.101 -0.133,-0.184 -0.2,-0.25 0,-0.101 0.017,-0.217 0.05,-0.351 0,-0.066 0.017,-0.116 0.05,-0.149 L 17.5,28.35 c -0.267,0.134 -0.55,0.25 -0.85,0.351 -0.233,0.133 -0.467,0.25 -0.7,0.35 H 16 c 0,0.033 -0.017,0.066 -0.05,0.101 -0.2,0.899 0.333,1.733 1.6,2.5 -0.733,-0.167 -1.367,-0.467 -1.9,-0.9 -0.333,-0.267 -0.533,-0.566 -0.6,-0.9 -0.033,-0.1 -0.05,-0.199 -0.05,-0.3 -0.1,0.033 -0.217,0.084 -0.35,0.15 -0.333,0.2 -0.683,0.383 -1.05,0.55 -0.2,0.134 -0.4,0.25 -0.6,0.35 0,0.682 0.475,1.299 1.425,1.851 0.023,0.019 0.049,0.035 0.075,0.05 -0.033,0 -0.067,-0.017 -0.1,-0.05 L 14,32.4 c -0.433,-0.134 -0.833,-0.334 -1.2,-0.601 -0.267,-0.2 -0.45,-0.45 -0.55,-0.75 -2,1.2 -3.867,2.5 -5.6,3.9 -0.473,0.379 -0.965,0.804 -1.475,1.274 l 0.1,-0.074 c 0.084,-0.034 0.159,-0.067 0.225,-0.101 0.307,-0.179 0.607,-0.346 0.9,-0.5 1.27,-0.477 2.354,-0.844 3.25,-1.1 1.467,-0.434 2.633,-0.65 3.5,-0.65 1.4,-0.033 2.467,0.267 3.2,0.9 0.633,0.533 0.983,1.217 1.05,2.05 0.067,0.6 -0.066,1.3 -0.4,2.1 -0.133,0.4 -0.283,0.733 -0.45,1 0.133,-0.267 0.25,-0.6 0.35,-1 0.2,-0.767 0.267,-1.416 0.2,-1.949 -0.267,-1.4 -1.1,-2.217 -2.5,-2.45 -1.133,-0.2 -2.633,0 -4.5,0.6 -0.9,0.3 -1.833,0.667 -2.8,1.101 0.1,0 0.2,-0.017 0.3,-0.051 2.066,-0.433 3.617,-0.366 4.65,0.2 1.033,0.533 1.733,1.017 2.1,1.45 0.2,0.233 0.283,0.4 0.25,0.5 -0.1,-0.167 -0.283,-0.35 -0.55,-0.55 -0.5,-0.4 -1.1,-0.717 -1.8,-0.95 -1.867,-0.634 -4.1,-0.55 -6.7,0.25 -0.767,0.4 -1.4,0.75 -1.9,1.05 C 3.55,38.282 3.433,38.483 3.3,38.65 3.2,38.716 3.084,38.766 2.95,38.799 2.65,38.9 2.367,38.883 2.1,38.749 l -0.3,-0.4 c -0.033,0 -0.05,-0.017 -0.05,-0.05 H 1.775 C 2.005,38.391 2.263,38.34 2.55,38.15 2.65,38.083 2.734,38.016 2.8,37.95 2.933,37.816 3.084,37.667 3.25,37.5 3.45,37.267 3.667,37 3.9,36.7 4,36.533 4.1,36.384 4.2,36.25 4.267,36.184 4.333,36.1 4.4,36 c 0.2,-0.3 0.483,-0.733 0.85,-1.3 0.2,-0.3 0.417,-0.65 0.65,-1.05 0.033,0 0.05,-0.017 0.05,-0.051 0.8,-1.233 1.45,-2.216 1.95,-2.949 0.7,-0.967 1.533,-2.134 2.5,-3.5 -0.2,0.133 -0.417,0.216 -0.65,0.25 H 9.65 C 9.482,27.427 9.323,27.42 9.175,27.375 9.085,27.501 8.993,27.626 8.9,27.75 8.933,27.684 8.967,27.634 9,27.6 9.031,27.507 9.073,27.432 9.125,27.375 L 9.15,27.35 H 9.1 L 8.9,27.25 8.85,27.2 C 8.517,27 8.267,26.666 8.1,26.2 V 26.15 L 7.8,24.05 V 23.9 c 0.4,1.6 1.067,2.45 2,2.55 h 0.3 c 0.033,0 0.066,-0.017 0.1,-0.05 h 0.15 c 0.1,-0.033 0.217,-0.066 0.35,-0.1 0.167,-0.066 0.3,-0.15 0.4,-0.25 v 0.05 l -0.05,0.15 c 1.3,-1.8 2.85,-3.933 4.65,-6.4 0.133,-0.2 0.283,-0.4 0.45,-0.6 0.267,-0.367 0.517,-0.717 0.75,-1.05 0.067,-0.1 0.133,-0.2 0.2,-0.3 0.467,-0.667 0.917,-1.267 1.35,-1.8 0.267,-0.367 0.517,-0.7 0.75,-1 0.066,-0.133 0.133,-0.25 0.2,-0.35 0.4,-0.533 0.75,-1 1.05,-1.4 0.3,-0.4 0.55,-0.733 0.75,-1 0.2,-0.233 0.367,-0.434 0.5,-0.6 h -0.05 c -0.167,0.133 -0.35,0.217 -0.55,0.25 -0.1,0.1 -0.2,0.217 -0.3,0.35 -0.066,0.1 -0.15,0.2 -0.25,0.3 0.067,-0.233 0.184,-0.433 0.35,-0.6 H 20.55 C 20.317,12.017 20.1,11.933 19.9,11.8 c -0.033,-0.1 -0.083,-0.183 -0.15,-0.25 -0.1,-0.233 -0.267,-0.566 -0.5,-1 -0.1,-0.133 -0.183,-0.267 -0.25,-0.4 L 19.2,7.6 c 0.061,1.875 0.611,2.975 1.65,3.3 0.333,0.133 0.7,0.167 1.1,0.1 H 22 c 0.033,0 0.083,-0.017 0.15,-0.05 0.133,-0.034 0.233,-0.067 0.3,-0.1 0.033,-0.033 0.066,-0.083 0.1,-0.15 l 0.05,-0.25 c 0.033,-0.1 0.05,-0.2 0.05,-0.3 0.033,-0.3 0,-0.617 -0.1,-0.95 C 22.55,9.166 22.533,9.117 22.5,9.05 22.467,8.95 22.433,8.85 22.4,8.75 22.3,8.517 22.15,8.183 21.95,7.75 21.817,7.55 21.717,7.367 21.65,7.2 L 22.1,4.8 c 0.012,-0.05 0.029,-0.1 0.05,-0.15 -0.167,1.867 0.217,3.05 1.15,3.55 0.034,0.033 0.067,0.05 0.1,0.05 0.233,0.133 0.483,0.2 0.75,0.2 h 0.5 C 24.783,8.45 24.9,8.433 25,8.4 24.767,8.767 24.467,9.033 24.1,9.2 24.067,9.233 24.033,9.25 24,9.25 23.967,9.283 23.933,9.333 23.9,9.4 23.767,9.567 23.633,9.733 23.5,9.9 23.467,9.933 23.433,9.983 23.4,10.05 v 0.05 c 0.733,0.833 2.017,0.883 3.85,0.15 z M 22.6,22.1 c 0.132,-0.113 0.265,-0.23 0.4,-0.35 -0.824,1.344 -0.941,2.377 -0.35,3.1 0.2,0.2 0.45,0.367 0.75,0.5 0,0.033 0.017,0.05 0.05,0.05 0.133,0.067 0.267,0.1 0.4,0.1 -0.3,0.2 -0.633,0.3 -1,0.3 -0.2,0 -0.383,-0.033 -0.55,-0.1 l -0.05,-0.05 c -0.1,-0.033 -0.2,-0.083 -0.3,-0.15 -0.267,-0.2 -0.434,-0.467 -0.5,-0.8 0,-0.034 -0.017,-0.083 -0.05,-0.15 0.033,-0.133 0.05,-0.3 0.05,-0.5 V 24 c 0.033,-0.167 0.1,-0.333 0.2,-0.5 z M 26.25,21 c -0.016,0.022 -0.032,0.048 -0.05,0.075 -0.856,1.263 -0.973,2.254 -0.35,2.975 0.2,0.233 0.466,0.417 0.8,0.55 v 0.05 h 0.05 c 0.033,0 0.05,0.017 0.05,0.05 0.1,0.033 0.2,0.05 0.3,0.05 -0.3,0.2 -0.633,0.283 -1,0.25 -0.167,-0.033 -0.316,-0.067 -0.45,-0.1 -0.1,-0.033 -0.184,-0.066 -0.25,-0.1 H 25.3 l -0.1,-0.1 -0.05,-0.05 c -0.167,-0.133 -0.3,-0.283 -0.4,-0.45 0,-0.034 0.017,-0.083 0.05,-0.15 0.034,-0.2 0.067,-0.5 0.1,-0.9 0.033,-0.333 0.067,-0.6 0.1,-0.8 l 0.375,-0.525 C 25.618,21.531 25.909,21.255 26.25,21 Z M 23.35,9.4 c -0.1,0 -0.217,-0.017 -0.35,-0.05 0.033,0.1 0.083,0.2 0.15,0.3 z M 3.05,34.35 c -0.1,0.266 -0.183,0.55 -0.25,0.85 -0.167,0.533 -0.333,1 -0.5,1.399 -0.1,0.167 -0.2,0.317 -0.3,0.45 -0.133,0.267 -0.25,0.483 -0.35,0.65 0.1,-0.4 0.2,-0.867 0.3,-1.4 0.2,-1.1 0.3,-2.017 0.3,-2.75 C 2.217,32.615 2.067,31.683 1.8,30.749 1.5,29.783 1.2,29.2 0.9,29 0.633,28.833 0.4,28.783 0.2,28.85 c -0.067,0 -0.117,0.017 -0.15,0.051 L 0,28.95 C 0.067,28.849 0.15,28.766 0.25,28.7 0.483,28.533 0.733,28.516 1,28.65 c 0.233,0.066 0.467,0.25 0.7,0.55 0.333,0.366 0.617,0.85 0.85,1.45 0.367,1 0.533,2.234 0.5,3.7 z M 31.4,24.15 31.7,24.1 c -0.101,-0.067 -0.184,-0.15 -0.25,-0.25 -0.033,0.1 -0.05,0.2 -0.05,0.3 z m -16.75,-6.7 c -0.1,-0.133 -0.217,-0.3 -0.35,-0.5 0,-0.034 -0.017,-0.067 -0.05,-0.1 -0.067,-0.167 -0.117,-0.367 -0.15,-0.6 -0.033,-0.2 -0.067,-0.383 -0.1,-0.55 l 0.1,-2.05 c 0.017,-0.05 0.033,-0.1 0.05,-0.15 0.133,1.967 0.75,3.1 1.85,3.4 0.333,0.067 0.683,0.067 1.05,0 h 0.05 c 0.2,-0.066 0.367,-0.133 0.5,-0.2 -0.167,0.4 -0.417,0.733 -0.75,1 -0.2,0.133 -0.4,0.216 -0.6,0.25 H 16.2 C 16.067,17.983 15.933,18 15.8,18 c -0.4,0 -0.75,-0.133 -1.05,-0.4 -0.033,-0.067 -0.067,-0.117 -0.1,-0.15 z m -3.1,2.1 v -2.6 L 11.6,16.9 c 0.2,1.934 0.833,3.033 1.9,3.3 0.3,0.066 0.633,0.066 1,0 0.033,0 0.067,-0.017 0.1,-0.05 h 0.05 C 14.85,20.117 15,20.067 15.1,20 c -0.133,0.4 -0.367,0.733 -0.7,1 -0.167,0.1 -0.316,0.167 -0.45,0.2 -0.1,0.033 -0.2,0.066 -0.3,0.1 -0.1,0.034 -0.217,0.05 -0.35,0.05 -0.133,0 -0.25,-0.017 -0.35,-0.05 -0.067,-0.133 -0.15,-0.25 -0.25,-0.35 -0.133,-0.2 -0.333,-0.467 -0.6,-0.8 -0.233,-0.267 -0.417,-0.467 -0.55,-0.6 z m -2,0.975 c 0.471,1.75 1.221,2.675 2.25,2.775 h 0.3 c 0.167,-0.033 0.316,-0.066 0.45,-0.1 0.1,-0.034 0.184,-0.067 0.25,-0.1 0.167,-0.067 0.317,-0.15 0.45,-0.25 -0.1,0.4 -0.283,0.75 -0.55,1.05 -0.267,0.267 -0.567,0.417 -0.9,0.45 l -0.05,0.05 h -0.4 c -0.2,-0.033 -0.4,-0.117 -0.6,-0.25 -0.333,-0.233 -0.6,-0.6 -0.8,-1.1 V 23 L 9.9,22.95 9.55,20.65 Z M 18.7,14.85 c -0.167,0.066 -0.35,0.1 -0.55,0.1 -0.233,0 -0.45,-0.05 -0.65,-0.15 -0.033,-0.066 -0.067,-0.133 -0.1,-0.2 -0.1,-0.233 -0.283,-0.55 -0.55,-0.95 -0.233,-0.4 -0.4,-0.7 -0.5,-0.9 V 12.7 c -0.057,-0.737 -0.007,-1.487 0.15,-2.25 0.167,1.966 0.783,3.083 1.85,3.35 0.333,0.1 0.7,0.1 1.1,0 h 0.2 l 0.2,-0.1 h 0.05 c 0,-0.034 0.017,-0.05 0.05,-0.05 -0.167,0.4 -0.417,0.717 -0.75,0.95 -0.167,0.133 -0.333,0.217 -0.5,0.25 z m -2.25,9.55 c -0.034,0.1 -0.067,0.217 -0.1,0.35 -0.033,-0.033 -0.067,-0.05 -0.1,-0.05 l 0.05,-0.1 c 0.037,-0.071 0.088,-0.138 0.15,-0.2 z m 2.45,0.2 c -0.167,0.066 -0.367,0.117 -0.6,0.15 V 24.6 l 0.65,-1.1 0.35,-0.2 c -0.233,0.5 -0.367,0.933 -0.4,1.3 z m -0.55,0.6 C 18.416,25.133 18.5,25.067 18.6,25 l 0.3,-0.3 c -0.033,0.5 0.1,0.917 0.4,1.25 0.167,0.167 0.367,0.3 0.6,0.4 0.067,0.033 0.133,0.066 0.2,0.1 0.167,0.033 0.3,0.066 0.4,0.1 -0.3,0.2 -0.617,0.317 -0.95,0.35 -0.167,0 -0.316,-0.017 -0.45,-0.05 -0.1,-0.033 -0.2,-0.067 -0.3,-0.1 -0.066,-0.033 -0.117,-0.067 -0.15,-0.1 -0.1,-0.066 -0.183,-0.133 -0.25,-0.2 V 26.1 c 0,-0.2 -0.017,-0.483 -0.05,-0.85 z m -2.5,2.8 c -0.1,-0.1 -0.184,-0.2 -0.25,-0.3 0.133,-0.101 0.233,-0.217 0.3,-0.351 L 15.85,27.4 c -0.1,0.033 -0.2,0.066 -0.3,0.1 -0.066,-0.233 -0.083,-0.467 -0.05,-0.7 0.031,-0.031 0.081,-0.064 0.15,-0.1 l 0.5,-0.2 c 0.067,0.4 0.25,0.7 0.55,0.9 0.066,0.066 0.133,0.116 0.2,0.149 0.1,0.033 0.217,0.066 0.35,0.101 0.067,0.033 0.133,0.05 0.2,0.05 0.167,0.033 0.3,0.05 0.4,0.05 -0.233,0.233 -0.517,0.4 -0.85,0.5 -0.3,0.066 -0.583,0.05 -0.85,-0.05 -0.133,-0.066 -0.233,-0.134 -0.3,-0.2 z"
         style="display:inline"
         transform="matrix(5.5599876,0,0,5.5599876,128.05399,94.988786)" />
    </g>
  </g>
  <g
     inkscape:groupmode="layer"
     id="layer3"
     inkscape:label="potato"
     transform="matrix(2.8321776,0,0,2.8321776,-218.25994,-454.69061)"
     style="display:none"
     sodipodi:insensitive="true">
    <g
       id="g1326"
       transform="rotate(14.235256,162.10715,231.97616)"
       sodipodi:insensitive="true">
      <path
         class="cls-5"
         d="m 145.88536,268.04923 c 44.01,6.59 62.36,-34.03 45.95,-60.82 -2.79,-4.55 -7.4,-7.82 -12.71,-8.38 -9.36,-0.98 -16.34,6.05 -25.26,16.2 -3.73,4.25 -14.99,7 -19.43,10.49 -15.76,12.37 -9.51,39.36 11.46,42.5 z"
         id="path2687"
         style="isolation:isolate;fill:url(#_%E7%A7%B0%E6%9C%AA%E8%A8%AD%E5%AE%9A%E3%82%B0%E3%83%A9%E3%83%87%E3%83%BC%E3%82%B7%E3%83%A7%E3%83%B3_12)" />
      <path
         class="cls-6"
         d="m 192.54156,205.98858 c 8.95,26.12 -9.86,58.83 -49.69,52.87 -7.09,-1.06 -12.5,-4.86 -15.94,-9.9 2.34,8.48 9.07,15.77 19.36,17.31 43.71,6.55 62.1,-33.48 46.27,-60.27 z"
         id="path2689"
         style="opacity:0.3;isolation:isolate;mix-blend-mode:overlay;fill:#020202" />
      <path
         class="cls-2"
         d="m 164.80156,219.86858 c 0.03,1.82 2.2,2.52 4.4,2.13"
         id="path2691"
         style="isolation:isolate;fill:none;stroke:#be8e58;stroke-width:3px;stroke-linecap:round;stroke-linejoin:round" />
      <path
         class="cls-2"
         d="m 146.83156,253.44858 c 0.92,-2.19 -1.86,-5.41 -4.16,-4.83"
         id="path2693"
         style="isolation:isolate;fill:none;stroke:#be8e58;stroke-width:3px;stroke-linecap:round;stroke-linejoin:round" />
      <path
         class="cls-2"
         d="m 180.65156,243.83858 c -1.5,-0.6 -3.41,0.37 -4.47,1.79"
         id="path2695"
         style="isolation:isolate;fill:none;stroke:#be8e58;stroke-width:3px;stroke-linecap:round;stroke-linejoin:round" />
      <path
         class="cls-3"
         d="m 146.27156,266.26858 c 44.01,6.59 62.36,-34.03 45.95,-60.82 -2.79,-4.55 -7.4,-7.82 -12.71,-8.38 -9.36,-0.98 -16.34,6.05 -25.26,16.2 -3.73,4.25 -14.99,7 -19.43,10.49 -15.76,12.37 -9.51,39.36 11.46,42.5 z"
         id="path2697"
         style="isolation:isolate;fill:none;stroke:#826a33;stroke-width:4px;stroke-linecap:round;stroke-linejoin:round" />
    </g>
  </g>
  <g
     inkscape:groupmode="layer"
     id="layer4"
     inkscape:label="corn"
     style="display:inline"
     sodipodi:insensitive="true">
    <g
       id="g1224"
       transform="matrix(0.04443083,-1.7523099,1.6864852,0.0427618,-156.01622,339.99346)">
      <g
         id="g513"
         style="display:inline"
         transform="translate(18.301211,168.53354)">
        <path
           d="M 73.5,16.08 C 66.76,20.55 60.48,25.66 55.78,29.91 42,42.32 34.16,54.95 30.4,71.2 c -0.93,4.89 -1.68,9.32 -1.6,14 -0.17,3.55 0.91,5.07 2.97,7.57 C 46.52,111.14 70.81,92.69 85.79,78.06 97.4,66.84 124.35,32.13 116.96,15.3 109.63,-1.61 90.12,5.32 73.5,16.08 Z"
           style="display:inline;fill:#f79329"
           id="path443" />
        <g
           id="g457">
          <path
             d="m 55.26,27.72 c -0.62,-0.76 -1.24,-1.44 -1.81,-2.02 -3.2,-3.23 -8.79,0.47 -10.74,3.31 -1.98,2.88 -2.39,6.07 -0.74,9.22 1.94,3.7 5.95,7.61 10.46,7.1 3.74,-0.42 8.08,-4.72 7.55,-8.67 -0.36,-2.81 -2.56,-6.31 -4.72,-8.94 z"
             style="fill:#fcc21b"
             id="path445" />
          <path
             d="m 55.82,30.55 c 1.46,2.07 3.67,6.16 6.46,6.01 1.49,-0.07 2.77,-1.32 3.73,-2.36 1.65,-1.79 3.49,-3.29 5.17,-5.07 0.69,-0.73 0.65,-1.42 0.25,-2.45 -1.4,-3.68 -4.41,-8.7 -8.2,-9.91 -0.85,-0.27 -1.79,-0.32 -2.84,-0.06 -1.55,0.37 -3,1.17 -4.24,2.22 -1.15,0.98 -1.88,2.01 -2.32,3.59 -0.34,1.21 -0.57,2.83 -0.25,4.11 0.37,1.39 1.43,2.77 2.24,3.92 z"
             style="fill:#fcc21b"
             id="path447" />
          <path
             d="m 70.86,25.08 c 3.09,1.69 6.25,-1.62 8.48,-3.35 2.29,-1.77 5.36,-2.91 3.96,-6.49 -0.92,-2.4 -3,-4.87 -5.13,-6.21 L 77.88,8.84 c -2.04,-1.1 -4.34,-0.44 -6.4,0.2 -3.03,0.94 -5.62,3.58 -5.56,7.03 0.03,1.88 1.05,3.64 1.96,5.23 0.73,1.29 1.64,3.05 2.98,3.78 z"
             style="fill:#fcc21b"
             id="path449" />
          <path
             d="m 84.35,16.37 c 1.94,0.15 3.24,-1.23 4.75,-2.15 1.87,-1.13 3.94,-1.94 5.79,-3.14 C 97.14,9.6 96.11,6.73 94.51,4.92 L 94.4,4.79 C 93.81,4.15 93.36,3.85 92.58,3.55 90.31,2.66 88.24,2.74 85.9,3.16 83.78,3.53 81.33,4.4 80.4,6.57 c -1.03,2.38 -0.02,5.39 1.33,7.46 0.59,0.88 1.5,2.25 2.62,2.34 z"
             style="fill:#fcc21b"
             id="path451" />
          <path
             d="m 102.54,9.73 c 2.99,-1.07 4.38,-3.13 3,-6.18 -0.51,-1.12 -1.55,-1.97 -2.6,-2.56 -1.48,-0.82 -4.24,-0.47 -5.79,-0.09 -2.34,0.56 -4,2.98 -2.87,5.36 0.75,1.59 1.24,2.36 2.73,3.34 0.74,0.48 1.28,0.6 2.21,0.67 0.98,0.05 2.19,-0.13 3.32,-0.54 z"
             style="fill:#fcc21b"
             id="path453" />
          <path
             d="m 29.67,42.42 c 0.64,-4.16 5.58,-7.44 9.65,-7.12 3.76,0.29 4.33,3.75 6.56,5.98 4.24,4.23 2.55,11.64 -2.48,14.15 -8.02,3.98 -14.81,-6.01 -13.73,-13.01 z"
             style="fill:#fcc21b"
             id="path455" />
        </g>
        <path
           d="m 33.15,49.67 c 3.07,1.46 6.88,-0.7 9.14,-2.68 1.12,-0.99 1.47,-1.66 2,-3.03 0.41,-1.11 0.22,-1.98 0.33,-3.12 1.28,-0.21 2.51,-0.03 3.77,-0.42 1.27,-0.4 2.66,-0.98 3.77,-1.79 1.21,-0.89 2.33,-1.87 2.99,-3.31 0.64,-1.39 0.77,-2.62 1.01,-4.06 0.12,-0.73 -0.06,-0.91 0.68,-1.14 0.62,-0.19 1.39,0.07 2.02,-0.04 1.52,-0.27 3.08,-1.28 4.44,-1.99 2.37,-1.25 4.25,-3.51 4.81,-6.12 0.57,-0.24 1.73,0.14 2.43,0.12 1.14,-0.03 1.9,-0.39 2.88,-0.92 2.17,-1.18 4.11,-2.51 5.2,-4.71 0.37,-0.75 0.63,-1.44 0.89,-2.26 0.35,-1.08 0.35,-1.7 1.52,-1.84 1.91,-0.22 3.91,0.18 5.72,-0.44 1.83,-0.62 3.65,-2 4.95,-3.46 0.51,-0.55 0.96,-1.37 1.57,-1.79 0.81,-0.55 1.75,-0.18 2.65,-0.08 1.08,0.12 2.46,0.29 3.6,0.08 0.92,-0.16 2,-0.89 2.88,-1.27 1.04,-0.44 1.47,-1.46 2.42,-1.88 0.99,-0.43 1.79,0.48 2.34,1.28 3.6,5.25 -3.63,11.51 -7.1,14.64 -5.66,5.11 -12.4,8.93 -18.87,12.9 -3.24,1.98 -6.37,4.22 -9.54,6.31 -3.9,2.57 -7.65,5.41 -11.26,8.38 -4.24,3.49 -8.99,6.46 -13.06,10.14 -2.18,1.97 -4.49,3.48 -7.17,4.7 -1.72,0.78 -4.11,1.45 -5.07,-0.62 -0.61,-1.29 -1.18,-2.61 -1.79,-3.9 -0.5,-1.06 -0.45,-2.02 -0.49,-3.19 z"
           style="display:inline;fill:#f79329"
           id="path459" />
        <g
           id="g473"
           style="display:inline">
          <defs
             id="defs462">
            <path
               id="path1075"
               d="m 109.87,7.77 c -1.55,-1.77 -3.1,-2.83 -5.49,-2.69 -1.61,0.09 -3.52,0.3 -4.57,1.68 -0.85,1.11 -1.65,2.92 -1.5,4.36 C 97.53,10.58 96.74,10.08 95.96,9.66 94.76,9 93.49,9.07 91.91,9.55 c -3.6,1.11 -7.12,4.78 -5.8,8.79 0.21,0.63 0.39,1.11 0.57,1.62 -1.19,-0.91 -1.93,-1.71 -3.46,-2.11 -2.59,-0.68 -5.27,-0.32 -7.84,1.96 -2.93,2.64 -3.14,5.53 -1.82,8.43 -0.09,-0.05 -0.17,-0.11 -0.26,-0.16 -1.17,-0.62 -2.46,-0.97 -3.74,-0.85 -1.64,0.14 -3.29,1.1 -4.96,3.31 -1.95,2.59 -2.16,5.64 -1.29,8.49 -0.92,-0.6 -1.87,-1.1 -2.83,-1.37 -1.4,-0.4 -2.91,-0.03 -4.26,0.4 -3.47,1.08 -5.76,3.88 -5.44,7.6 0.12,1.36 0.55,2.79 1.16,4.16 -0.85,-0.52 -1.71,-0.96 -2.57,-1.21 -1.4,-0.4 -2.9,-0.03 -4.26,0.4 -3.47,1.08 -5.76,3.87 -5.43,7.6 0.09,1.13 0.43,2.3 0.88,3.46 -0.46,-0.22 -0.92,-0.43 -1.38,-0.56 -1.4,-0.4 -2.91,-0.03 -4.26,0.4 -3.49,1.08 -5.77,3.87 -5.45,7.6 0.09,1.12 0.42,2.29 0.87,3.45 -1.05,-0.02 -2.11,0.14 -3.11,0.45 -3.46,1.08 -5.76,3.88 -5.44,7.6 0.27,3.14 2.02,6.73 4.57,8.82 1.74,1.42 4.02,2.49 6.05,3.39 3.36,1.49 7.43,0.09 9.62,-2.66 2.27,-2.83 2.12,-5.66 0.48,-8.29 2.72,0.17 5.5,-1.11 7.18,-3.22 2.28,-2.83 2.11,-5.67 0.47,-8.29 0.04,0.01 0.08,0.03 0.11,0.05 3.36,1.49 7.42,0.08 9.62,-2.66 2.49,-3.09 2.07,-6.19 0.01,-9 0.49,0.24 1,0.5 1.48,0.72 3.36,1.48 7.42,0.08 9.63,-2.66 2.02,-2.52 2.09,-5.04 0.95,-7.42 1.62,0.44 3.3,0.46 4.94,-0.15 1.18,-0.44 2.32,-1.18 3.36,-2.3 2.63,-2.8 2.57,-5.97 1.25,-8.91 0.49,0.18 0.89,0.36 1.49,0.54 5.77,1.74 12.58,-5.39 8.6,-10.76 -0.1,-0.14 -0.17,-0.24 -0.27,-0.38 0.06,0.04 0.09,0.07 0.14,0.1 3.99,2.35 9.22,1.88 11.66,-2.34 1.11,-1.96 1.21,-3.82 0.75,-5.54 2.14,0.79 4.57,0.65 6.55,-0.86 3.31,-2.54 1.71,-6.82 -0.56,-9.42 z" />
          </defs>
          <use
             style="overflow:visible;fill:#fcc21b"
             xlink:href="#SVGID_1_"
             id="use464" />
          <clipPath
             id="clipPath791">
            <use
               style="overflow:visible"
               xlink:href="#SVGID_1_"
               id="use789" />
          </clipPath>
          <g
             clip-path="url(#SVGID_2_)"
             id="g471">
            <path
               d="m 39.28,76.65 c 1.16,0.69 2.65,-0.52 3.47,-1.19 1.11,-0.9 2,-1.92 2.7,-3.19 0.55,-1.02 1.11,-2.33 1.17,-3.44 0.07,-1.28 -0.06,-2.61 0.16,-3.86 1.3,-0.24 2.72,0 4,-0.37 1.72,-0.5 3.29,-1.57 4.56,-2.83 1.04,-1.01 2.14,-1.86 2.36,-3.36 0.17,-1.22 -0.33,-2.86 0.15,-3.99 1.38,-0.28 2.82,-0.29 4.14,-0.92 1.28,-0.62 3.36,-1.82 4.09,-3.09 0.76,-1.3 1.28,-2.85 1.41,-4.3 0.06,-0.59 -0.02,-1.52 0.25,-2.05 0.34,-0.64 1.33,-0.67 1.96,-0.77 3.11,-0.49 6.21,-2.86 7.48,-5.8 0.3,-0.68 0.52,-1.36 0.74,-2.06 0.24,-0.76 0.07,-1.41 0.22,-2.17 0.2,-1.19 2.52,-1.21 3.53,-1.74 1.41,-0.74 2.85,-1.56 4.13,-2.58 1.55,-1.25 2.31,-2.76 3.25,-4.45 0.24,-0.42 0.05,-0.48 0.5,-0.66 0.26,-0.1 0.73,-0.04 1.01,-0.05 0.78,-0.04 1.3,-0.22 2.01,-0.41 1.67,-0.45 3.41,-1.21 4.95,-2.04 1.67,-0.89 2.81,-1.86 3.65,-3.57 0.24,-0.47 0.48,-1.57 0.96,-1.84 0.48,-0.27 1.61,-0.11 2.17,-0.14 1.58,-0.08 2.85,-0.27 4.2,-1.07 1.17,-0.69 2.13,-1.89 2.89,-3.01 0.48,-0.72 0.49,-1.12 1.39,-0.72 0.42,0.19 1.02,0.5 1.32,0.89 0.81,1.07 0.66,3.06 0.7,4.35 0.04,1.6 -0.62,3.39 -1.61,4.6 -0.67,0.83 -1.18,1.41 -2.06,2.05 -1.38,0.99 -2.25,2.27 -3.37,3.52 -1.62,1.8 -3.18,3.63 -4.67,5.52 -2.81,3.55 -6.4,6.31 -9.68,9.38 -1.81,1.7 -3.52,3.48 -5.28,5.23 -1.73,1.71 -3.66,3.12 -5.5,4.71 -3.42,2.97 -6.54,6.27 -9.96,9.24 -4.85,4.21 -9.6,8.55 -13.95,13.28 -1.21,1.32 -2.18,2.85 -3.38,4.18 -1.11,1.24 -2.2,2.52 -3.32,3.76 -1.76,1.97 -3.55,3.9 -5.45,5.74 -0.63,0.61 -1.44,1.2 -2.24,1.56 -1.02,0.45 -1.99,1.07 -3.14,1.05 -0.77,-0.01 -1.35,-0.37 -2.1,-0.4 -0.72,-0.03 -1.29,0.07 -1.99,-0.18 -0.4,-0.14 -0.8,-0.27 -1.05,-0.65 -0.42,-0.62 -0.22,-1.53 -0.62,-2.17 z"
               style="fill:#f79329"
               id="path469" />
          </g>
        </g>
        <g
           id="g485"
           style="display:inline">
          <defs
             id="defs476">
            <path
               id="path1084"
               d="m 115.23,17.99 c -0.09,-0.02 -0.18,-0.05 -0.29,-0.08 -4.42,-1.44 -9.72,-6.57 -10,-11.39 -0.11,-1.89 1.62,-2.99 3.28,-3.26 0.98,-0.15 2.55,-0.23 3.43,0.07 4.56,1.58 11.21,10.48 5.36,14.34 -0.58,0.38 -1.14,0.47 -1.78,0.32 z" />
          </defs>
          <use
             style="overflow:visible;fill:#fcc21b"
             xlink:href="#SVGID_3_"
             id="use478" />
          <clipPath
             id="clipPath801">
            <use
               style="overflow:visible"
               xlink:href="#SVGID_3_"
               id="use799" />
          </clipPath>
          <path
             d="m 117.11,7.81 c -0.05,0.4 -0.09,0.85 -0.11,0.94 -0.13,0.52 -0.39,0.85 -0.76,1.25 -0.62,0.67 -1.47,1.07 -2.36,1.27 -0.37,0.08 -0.72,0.17 -1.09,0.16 -0.42,-0.01 -0.84,-0.11 -1.25,-0.05 -0.14,0.4 0.54,0.87 0.75,1.17 0.34,0.47 0.64,0.92 0.93,1.43 0.26,0.47 0.67,0.85 0.91,1.34 0.22,0.45 0.41,0.87 0.67,1.28 0.26,0.42 0.5,0.8 0.86,1.14 0.42,0.39 0.85,0.53 1.35,0.76 1.5,0.71 2.93,-0.33 3.67,-1.59 1.49,-2.51 -0.4,-5.04 -1.54,-7.22 -0.29,-0.56 -1.17,-2.62 -1.95,-2.51 -0.01,0.01 -0.04,0.3 -0.08,0.63 z"
             style="fill:#f79329"
             clip-path="url(#SVGID_4_)"
             id="path483" />
        </g>
        <g
           id="g497"
           style="display:inline">
          <defs
             id="defs488">
            <path
               id="path1092"
               d="m 122.12,20.46 c -0.57,-1.05 -1.44,-2.1 -2.54,-2.6 -3.06,-1.39 -5.12,-0.02 -6.2,2.96 -0.4,1.14 -0.61,2.35 -0.54,3.34 0.06,0.93 0.18,1.46 0.66,2.22 0.21,0.32 0.41,0.57 0.6,0.81 -0.81,0.07 -1.54,0.45 -2.1,1.28 -1.21,1.86 -2.03,3.92 -3.17,5.77 -0.9,1.52 -2.3,2.82 -2.16,4.76 0.03,0.3 0.14,0.58 0.32,0.85 -2.94,-0.66 -4.07,2.05 -5.71,4.15 -1.72,2.23 -5.04,5.37 -3.36,8.47 0.03,0.06 0.08,0.1 0.12,0.16 -0.59,-0.28 -1.18,-0.54 -1.73,-0.75 -1.03,-0.4 -1.72,-0.44 -2.45,0.26 -1.78,1.66 -3.29,3.5 -5.09,5.14 -1.04,0.95 -2.3,2.23 -2.38,3.72 -0.05,0.94 0.39,1.81 1.06,2.61 -0.4,-0.11 -0.8,-0.27 -1.18,-0.32 -3.95,-0.55 -8.28,3.79 -8.71,7.52 -0.19,1.66 0.22,3.25 1,4.7 -4.12,-1.47 -9.12,0.34 -11.11,4.31 -4.02,8 5.95,14.82 12.94,13.78 4.18,-0.63 7.47,-5.56 7.16,-9.63 -0.04,-0.71 -0.24,-1.28 -0.49,-1.8 2.33,0.47 4.64,-0.12 6.79,-1.58 2.85,-1.93 6.57,-7.51 3.35,-10.72 -0.03,-0.03 -0.07,-0.07 -0.11,-0.1 1.12,0.1 2.33,-0.02 3.31,-0.29 1.57,-0.44 2.6,-1.16 3.59,-2.3 1.05,-1.23 1.86,-2.68 2.23,-4.22 0.27,-1.06 0.22,-1.99 -0.04,-2.85 -0.4,-1.24 -1.22,-2.4 -2.26,-3.45 0.95,0.43 1.94,0.76 2.96,0.78 3.46,0.06 6.12,-2.5 7.06,-5.53 0.66,-2.06 1.31,-4.35 0.22,-6.39 l -0.18,-0.31 c -0.47,-0.75 -1.1,-1.47 -1.8,-2.16 1.44,0.41 2.95,0.5 4.27,-0.06 2.18,-0.93 3.06,-3.37 3.44,-5.48 0.42,-2.36 0.52,-4.41 -0.37,-6.69 -0.21,-0.58 -0.48,-0.97 -0.83,-1.37 1.65,-0.15 3.08,-1.47 3.49,-3.18 0.39,-1.57 0.76,-4.33 -0.06,-5.81 z" />
          </defs>
          <use
             style="overflow:visible;fill:#fcc21b"
             xlink:href="#SVGID_5_"
             id="use490" />
          <clipPath
             id="clipPath810">
            <use
               style="overflow:visible"
               xlink:href="#SVGID_5_"
               id="use808" />
          </clipPath>
          <path
             d="m 120.48,18.46 c 0.25,0.56 0.52,1.09 0.63,1.7 0.13,0.73 0.18,1.56 0.04,2.29 -0.23,1.15 -1.06,2.59 -1.85,3.51 -0.72,0.83 -2.74,1.38 -2.66,2.56 0.04,0.64 0.36,1.12 0.38,1.84 0.02,0.72 0.12,1.47 0.06,2.19 -0.19,2.75 -2.47,5.64 -4.85,7.09 -0.45,0.27 -1.32,0.44 -1.63,0.84 -0.41,0.54 -0.15,1.33 0.06,1.85 0.56,1.38 0.96,2.68 0.58,4.21 -0.62,2.49 -2.14,5.2 -4.36,6.57 -1.08,0.66 -2.28,1.18 -3.47,1.44 -0.41,0.09 -1.12,0.13 -1.37,0.5 -0.38,0.56 -0.03,1.27 0.06,1.86 0.38,2.5 -0.77,5.35 -2.5,7.15 -1.05,1.09 -1.99,2.13 -3.45,2.85 -0.92,0.44 -2.51,1.09 -3.49,1.08 -0.13,1.46 -0.06,2.8 -0.62,4.22 -0.72,1.85 -2.5,3.01 -4.06,4.11 -1.33,0.93 -2.52,1.12 -4,1.46 -0.96,0.22 -0.72,0.31 -0.8,1.24 -0.04,0.66 -0.37,1.29 -0.67,1.88 -1.28,2.52 -3.55,4.42 -6.03,5.6 -1.44,0.68 -3,1.21 -4.49,1.61 -0.63,0.17 -1.38,0.31 -2.02,0.39 -0.92,0.11 -1.28,0.03 -1.5,1.05 -0.16,0.77 -0.27,1.84 0.06,2.56 0.41,0.88 1.32,1.52 1.9,2.27 0.57,0.74 0.97,1.72 1.76,2.27 0.93,0.66 2.39,0.61 3.49,0.78 1.5,0.23 2.97,0.27 4.49,0.21 2.98,-0.12 5.44,-1.6 7.77,-3.37 5.86,-4.47 10.77,-10.18 15.05,-16.16 1.7,-2.38 3.08,-5.01 4.53,-7.54 1.32,-2.28 2.72,-4.46 4.02,-6.72 0.95,-1.65 1.84,-3.33 2.86,-4.93 1.08,-1.7 2.32,-3.67 2.92,-5.6 0.61,-1.9 1.64,-3.52 2.37,-5.37 0.65,-1.65 0.74,-3.37 1.16,-5.08 0.29,-1.18 0.77,-2.19 0.95,-3.39 0.19,-1.17 0.66,-2.22 0.88,-3.36 0.39,-2.02 0.49,-4.12 0.93,-6.15 0.48,-2.23 1.07,-4.62 0.73,-6.92 -0.25,-1.71 -1.95,-5.19 -4.1,-5.08 0.1,0.16 0.16,0.32 0.24,0.49 z"
             style="fill:#f79329"
             clip-path="url(#SVGID_6_)"
             id="path495" />
        </g>
        <g
           id="g511">
          <defs
             id="defs500">
            <path
               id="path1100"
               d="m 116.5,23.52 c 1.38,-1.06 1.57,-2.97 1.65,-4.58 0.14,-2.39 -0.93,-3.93 -2.72,-5.46 -2.61,-2.26 -6.9,-3.85 -9.42,-0.52 -1.5,1.98 -1.62,4.41 -0.82,6.54 -1.73,-0.45 -3.6,-0.35 -5.55,0.79 -4.21,2.45 -4.66,7.69 -2.28,11.66 0.04,0.06 0.07,0.09 0.11,0.15 -0.14,-0.09 -0.25,-0.17 -0.38,-0.27 -5.39,-3.96 -12.5,2.88 -10.73,8.65 0.26,0.85 0.52,1.5 0.77,2.08 -3.03,-1.47 -6.36,-1.59 -9.23,1.15 -1.12,1.06 -1.87,2.19 -2.29,3.37 -0.53,1.43 -0.56,2.91 -0.26,4.35 -2.3,-1.01 -4.74,-0.86 -7.16,1.11 -2.74,2.21 -4.12,6.28 -2.62,9.63 0.22,0.48 0.48,0.98 0.72,1.47 -2.82,-2.05 -5.93,-2.44 -9,0.04 -2.73,2.22 -4.11,6.29 -2.61,9.64 0.02,0.03 0.03,0.07 0.04,0.11 -2.62,-1.62 -5.45,-1.77 -8.27,0.52 -2.1,1.69 -3.37,4.47 -3.19,7.19 -2.63,-1.62 -5.46,-1.76 -8.3,0.53 -2.72,2.21 -4.11,6.27 -2.6,9.64 0.91,2.02 2,4.3 3.43,6.03 2.11,2.55 5.71,4.29 8.84,4.53 3.71,0.31 6.5,-2.01 7.58,-5.48 0.3,-0.99 0.46,-2.05 0.43,-3.1 1.16,0.44 2.33,0.77 3.46,0.86 3.73,0.3 6.5,-2 7.58,-5.47 0.42,-1.37 0.79,-2.88 0.37,-4.27 -0.13,-0.46 -0.35,-0.92 -0.57,-1.38 1.16,0.44 2.34,0.78 3.46,0.87 3.72,0.3 6.51,-2.01 7.58,-5.48 0.4,-1.36 0.77,-2.87 0.37,-4.27 -0.25,-0.86 -0.7,-1.71 -1.22,-2.56 1.38,0.61 2.8,1.04 4.16,1.14 3.73,0.3 6.52,-1.99 7.58,-5.48 0.42,-1.36 0.78,-2.88 0.38,-4.27 -0.22,-0.73 -0.58,-1.46 -0.99,-2.18 2.71,0.68 5.56,0.37 7.98,-1.48 2.19,-1.67 3.15,-3.34 3.28,-4.97 0.13,-1.28 -0.23,-2.56 -0.86,-3.74 -0.17,-0.33 -0.41,-0.67 -0.62,-1 3.09,1.61 6.18,1.55 8.99,-1.6 2.29,-2.57 2.61,-5.25 1.92,-7.84 -0.4,-1.54 -1.21,-2.26 -2.13,-3.46 0.52,0.18 1.01,0.35 1.63,0.56 4.01,1.31 7.67,-2.23 8.76,-5.84 0.49,-1.58 0.55,-2.86 -0.12,-4.07 -0.42,-0.77 -0.93,-1.56 -1.48,-2.33 1.42,0.14 3.22,-0.66 4.35,-1.51 z" />
          </defs>
          <use
             style="overflow:visible;fill:#fcc21b"
             xlink:href="#SVGID_7_"
             id="use502" />
          <clipPath
             id="clipPath819">
            <use
               style="overflow:visible"
               xlink:href="#SVGID_7_"
               id="use817" />
          </clipPath>
          <g
             clip-path="url(#SVGID_8_)"
             id="g509">
            <path
               d="m 51,90.77 c 0.6,-0.47 1.24,-0.22 1.96,-0.32 1.96,-0.29 3.46,-2.07 4.4,-3.69 0.58,-1.01 1.17,-2.3 1.25,-3.4 0.1,-1.28 0,-2.61 0.25,-3.86 1.32,-0.21 2.73,0.07 4.01,-0.27 1.74,-0.45 3.33,-1.48 4.64,-2.71 1.05,-0.98 2.18,-1.81 2.44,-3.3 0.2,-1.22 -0.26,-2.87 0.25,-3.98 1.39,-0.25 2.83,-0.22 4.16,-0.82 1.29,-0.59 3.4,-1.74 4.16,-2.98 0.8,-1.28 1.36,-2.81 1.53,-4.27 0.08,-0.58 0.02,-1.52 0.31,-2.04 0.36,-0.64 1.35,-0.64 1.98,-0.72 3.12,-0.41 6.28,-2.71 7.62,-5.61 0.32,-0.67 0.56,-1.35 0.8,-2.04 0.27,-0.76 0.12,-1.41 0.27,-2.16 0.24,-1.18 2.56,-1.15 3.58,-1.65 2.74,-1.35 5.78,-3.1 6.83,-6.19 0.66,-1.96 0.34,-3.81 0.55,-5.83 2.43,-0.67 5.1,-2.21 6.41,-4.49 0.81,-1.41 1.29,-2.74 1.44,-4.31 0.12,-1.36 -0.07,-2.86 0.09,-4.24 0.05,-0.38 2.56,-1.47 2.96,-1.89 1.88,-1.97 2.8,-6.31 0.27,-8.21 0.36,-0.07 0.81,-0.02 1.17,0.08 0.47,0.13 0.95,0.59 1.37,0.85 0.59,0.36 1.09,0.94 1.58,1.43 0.53,0.53 0.96,1.21 1.52,1.73 0.58,0.55 1.06,1.41 1.11,2.2 0.05,1 0.43,1.97 0.6,2.95 0.37,2.19 0.05,4.3 -1.2,6.16 -0.43,0.65 -0.95,1.15 -1.41,1.78 -0.55,0.78 -0.59,1.61 -0.77,2.55 -0.42,2.1 -0.34,3.96 -1.22,6.04 -1.38,3.29 -3.33,6.17 -5.25,9.19 -5.31,8.4 -12.45,15.62 -19.68,22.41 -0.92,0.86 -1.82,1.58 -2.58,2.56 -0.49,0.63 -0.96,1.36 -1.5,1.96 -2.4,2.65 -5.31,4.69 -7.97,7.02 -2.87,2.52 -5.65,5.12 -8.32,7.86 -1.25,1.28 -2.25,2.8 -3.49,4.1 -1.15,1.21 -2.26,2.46 -3.4,3.67 -1.82,1.93 -3.65,3.81 -5.61,5.6 -0.66,0.59 -1.47,1.17 -2.28,1.5 -1.03,0.42 -2.02,1.01 -3.17,0.97 -0.76,-0.03 -1.34,-0.4 -2.07,-0.45 -1.41,-0.1 -2.75,-0.05 -3.21,-1.56 -0.41,-1.35 -0.29,-2.81 -0.01,-4.17 0.27,-1.32 1.36,-2.87 1.97,-4.05 0.43,-0.88 0.81,-2.64 1.66,-3.4 z"
               style="fill:#f79329"
               id="path507" />
          </g>
        </g>
      </g>
      <g
         id="g529"
         transform="translate(18.301211,168.53354)">
        <path
           d="m 15.67,35.91 c 5.33,6.2 2.05,17.2 0.63,23.42 -1.26,5.51 -2.62,10.86 -4.29,16 -5.65,17.34 -2.61,29.85 -2.42,30.8 3.34,-4 8.5,-3.15 12.71,-5.61 3.98,-2.67 7.91,-7.33 10.56,-11.45 2.96,-4.64 3.43,-25.05 3.06,-30.4 -0.32,-4.52 -1.15,-13.86 -4.58,-19.89 -1.92,-3.37 -4.18,-6.65 -7.58,-8.6 -2.3,-1.32 -4.98,-2.06 -8.01,-2.06 h -0.19 c -1.47,0.02 -2.95,0.08 -4.34,0.45 -1.75,0.47 -3.24,1.94 -1.96,3.89 1.36,2.09 4.69,1.45 6.41,3.45 z"
           style="fill:#757f3f"
           id="path515" />
        <g
           id="g527"
           style="display:inline">
          <defs
             id="defs518">
            <path
               id="path1111"
               d="M 93.99,78.05 C 93.8,78 93.6,77.94 93.4,77.9 89.57,77.02 78.58,75.49 70.01,75.6 c -15.3,0.19 -30.02,2.91 -41.98,9.63 -1.11,0.63 -2.32,1.3 -3.56,2.02 -4.76,2.76 -10.01,6.23 -12.8,10.71 -1.09,1.73 -1.8,3.6 -1.98,5.65 -0.16,1.79 -0.16,3.61 -0.06,5.45 0.03,0.7 0.13,1.52 -0.13,2.13 -0.3,0.69 -0.93,0.71 -1.4,1.18 -1.14,1.17 -2.5,1.74 -2.71,3.56 l -0.01,0.17 c -0.05,2.45 2.48,5.31 4.28,7.07 1.21,1.2 2.8,2.77 4.34,3.5 1.06,0.49 2.01,0.63 3.12,0.79 l 0.53,0.04 c 2.09,0 2.44,-2.01 4,-2.94 0.31,-0.18 0.6,-0.24 0.91,-0.24 0.65,0 1.33,0.29 2.07,0.4 4.62,0.65 8.7,1.77 13.01,1.77 1.6,0 3.24,-0.16 4.95,-0.55 7.01,-1.63 12.95,-5.56 18.77,-9.61 5.64,-3.91 10.82,-8.57 16.25,-13.2 5.16,-4.41 10.89,-10.16 18.51,-10.16 1.54,0 3.15,0.23 4.84,0.76 3.21,0.98 5.34,2.88 7.9,4.8 1.05,0.79 2.34,2.43 3.8,2.43 0.55,0 1.12,-0.23 1.71,-0.81 3.19,-3.12 0.63,-9.12 -1.77,-11.94 -4.56,-5.37 -11.69,-8.47 -18.61,-10.16 z" />
          </defs>
          <use
             style="overflow:visible;fill:#757f3f"
             xlink:href="#SVGID_9_"
             id="use520" />
          <clipPath
             id="clipPath831">
            <use
               style="overflow:visible"
               xlink:href="#SVGID_9_"
               id="use829" />
          </clipPath>
          <path
             d="m 13.53,115.35 c 2.71,0.89 -0.11,-6.64 9.56,-14.2 11.05,-8.64 21.07,-13.93 32.4,-17.18 15.36,-4.41 39,-5.61 51.52,-0.58 2.45,0.98 7.28,5.43 9.72,6.39 0.31,0.13 -0.58,-4.51 -0.76,-4.9 -0.61,-1.36 -1.45,-2.73 -2.68,-3.6 -0.87,-0.64 -1.96,-0.95 -2.86,-1.56 -1.55,-1.04 -2.75,-2.38 -4.5,-3.15 -7.69,-3.38 -15.61,-6.61 -24.04,-7.5 -3.86,-0.41 -7.82,0.4 -11.69,0.82 -4.21,0.45 -8.4,1.04 -12.6,1.62 -7.31,1.02 -14.97,2.56 -22.1,4.5 -7.55,2.05 -16.51,3.36 -21.28,9.58 -15.06,19.65 -1.08,29.63 -0.69,29.76 z"
             style="fill:#bdcf46"
             clip-path="url(#SVGID_10_)"
             id="path525" />
        </g>
      </g>
    </g>
  </g>
  <g
     inkscape:groupmode="layer"
     id="layer5"
     inkscape:label="tagged"
     inkscape:highlight-color="#d5ff00"
     sodipodi:insensitive="true"
     style="display:inline">
    <path
       id="rect1709"
       style="fill:#eaf32f;stroke:#000000;stroke-width:4;stop-color:#000000"
       d="m 251.36582,87.369606 h 71.52909 V 201.50155 l -36.88674,-26.44189 -34.64235,26.44189 z"
       sodipodi:nodetypes="cccccc" />
  </g>
</svg>
